<svg width="51" height="51" viewBox="0 0 51 51" fill="none" xmlns="http://www.w3.org/2000/svg">
<path fill-rule="evenodd" clip-rule="evenodd" d="M2.36139 50.607H50.6149V47.0326H4.14855V0.566284H0.574219V48.8198L2.36139 50.607ZM7.72289 41.6711V13.0765L9.51005 11.2893H16.6587L18.4459 13.0765V41.6711L16.6587 43.4583H9.51005L7.72289 41.6711ZM14.8716 39.884V14.8636H11.2972V39.884H14.8716ZM36.3176 5.92779V41.6711L38.1047 43.4583H45.2534L47.0406 41.6711V5.92779L45.2534 4.14062H38.1047L36.3176 5.92779ZM43.4662 7.71495V39.884H39.8919V7.71495H43.4662ZM22.0202 41.6711V20.2251L23.8074 18.438H30.9561L32.7432 20.2251V41.6711L30.9561 43.4583H23.8074L22.0202 41.6711ZM29.1689 39.884V22.0123H25.5946V39.884H29.1689Z" fill="#EF4E58"/>
</svg>
