<svg width="96" height="96" viewBox="0 0 96 96" fill="none" xmlns="http://www.w3.org/2000/svg">
<path d="M19 42.4911L41.5541 47.2474L41.665 46.7504L19.1385 41.9941L19 42.4911Z" fill="#EF4E58"/>
<path d="M32.9648 18.2603L43.854 35.7947L44.3805 35.5344L33.519 18L32.9648 18.2603Z" fill="#EF4E58"/>
<path d="M57.6774 19.0645L52.4961 30.7541L53.078 30.9197L58.2593 19.2538L57.6774 19.0645Z" fill="#EF4E58"/>
<path d="M24.7113 25.6665C24.7113 25.6665 43.608 26.7077 42.5828 44.9046C42.5828 44.881 23.2151 41.4735 24.7113 25.6665Z" fill="#EF4E58"/>
<path d="M46.8475 18.8281C46.8475 18.8281 37.9533 25.7141 46.8475 34.3748C46.8475 34.3985 54.9105 26.1874 46.8475 18.8281Z" fill="#EF4E58"/>
<path d="M68.9557 22.9693C68.9557 22.9693 59.5073 20.8633 56.5703 29.9263C56.5703 29.9026 66.6837 30.9202 68.9557 22.9693Z" fill="#EF4E58"/>
<path fill-rule="evenodd" clip-rule="evenodd" d="M76.2973 44.7156C75.3553 44.1004 74.4409 43.4852 73.4989 42.8699C72.7507 42.3967 72.5568 41.7814 72.5291 41.0242C72.5014 39.9594 72.2797 38.8945 72.1689 37.8297C72.1412 37.522 72.3351 37.2144 72.1689 36.9305C69.4535 32.0085 61.5845 30.5414 55.7936 31.8429C52.3578 32.6238 49.1714 34.5642 47.3981 37.2144C46.4006 38.7052 45.8188 40.4326 45.5971 42.1837C45.1815 42.3967 44.7936 42.6333 44.4334 42.8936C44.0178 44.7393 44.6551 46.5614 45.6802 48.1941C51.4989 49.7086 60.0606 53.329 64.4107 61.9188C64.4384 61.3982 64.4938 60.9012 64.5492 60.3097C64.9372 56.9495 67.9573 55.1274 71.8641 54.5595C72.8339 54.4175 73.8591 54.2756 74.7734 53.9679C76.2973 53.471 76.5744 52.7138 75.9649 51.4596C75.854 51.2467 75.7709 50.8681 75.9094 50.7734C76.8792 50.0635 76.6298 49.4956 75.6047 48.904C77.7659 48.0522 75.6878 47.4369 75.5215 46.7034C75.7986 46.4904 76.048 46.3011 76.3251 46.1118C77.2394 45.4492 77.2117 45.3309 76.2973 44.7156Z" fill="#EF4E58"/>
<path d="M38.4274 48.9512C38.4274 48.9512 67.5206 50.5603 65.9135 78.5301C65.9135 78.5301 36.1277 73.2769 38.4274 48.9512Z" fill="#EF4E58"/>
<circle cx="48" cy="48" r="45" stroke="#EF4E58" stroke-width="6"/>
</svg>
