<svg width="56" height="58" viewBox="0 0 56 58" fill="none" xmlns="http://www.w3.org/2000/svg">
<path d="M49.1471 0H8.42522C7.48908 0 6.69124 0.186163 6.03169 0.55849C5.37214 0.930816 4.90407 1.38692 4.62749 1.92679C4.3509 2.46666 4.21261 3.05308 4.21261 3.68603V10.7789H1.97865C1.42548 10.7789 0.957411 10.9557 0.574447 11.3094C0.191482 11.6631 0 12.082 0 12.566C0 12.8639 0.0851032 13.1524 0.25531 13.4317C0.425516 13.7109 0.670188 13.925 0.989325 14.0739C1.30846 14.2229 1.63824 14.2973 1.97865 14.2973H4.21261V21.5019H2.17013C1.82972 21.5019 1.49994 21.5763 1.18081 21.7253C0.86167 21.8742 0.616998 22.0883 0.446792 22.3675C0.276585 22.6468 0.191482 22.9353 0.191482 23.2332C0.191482 23.7172 0.382964 24.1268 0.765929 24.4618C1.14889 24.7969 1.61696 24.9645 2.17013 24.9645H4.21261V32.2249H2.1063C1.85099 32.2249 1.60632 32.2714 1.37229 32.3645C1.13826 32.4576 0.925497 32.5786 0.734015 32.7275C0.542533 32.8764 0.393602 33.0626 0.287223 33.286C0.180844 33.5094 0.127655 33.7328 0.127655 33.9562C0.127655 34.4402 0.329775 34.8591 0.734015 35.2128C1.13826 35.5665 1.59568 35.7433 2.1063 35.7433H4.21261V42.892H2.1063C1.9361 42.892 1.76589 42.9106 1.59568 42.9479C1.42548 42.9851 1.26591 43.0409 1.11698 43.1154C0.968049 43.1899 0.829756 43.283 0.702101 43.3946C0.574447 43.5063 0.468068 43.6274 0.382964 43.7577C0.297861 43.888 0.234034 44.0276 0.191482 44.1765C0.148931 44.3255 0.127655 44.4744 0.127655 44.6233C0.127655 45.1074 0.329775 45.5262 0.734015 45.8799C1.13826 46.2336 1.59568 46.4105 2.1063 46.4105H4.21261V53.615C4.21261 54.9182 4.64876 55.8397 5.52107 56.3795C6.39338 56.9194 7.34015 57.1893 8.36139 57.1893H49.1471C50.8492 57.1893 52.2959 56.6681 53.4874 55.6256C54.6788 54.5831 55.2745 53.3172 55.2745 51.8278V5.3615C55.2745 3.8722 54.6788 2.60629 53.4874 1.56377C52.2959 0.521257 50.8492 0 49.1471 0ZM8.29756 53.615V46.4105H10.4039C10.957 46.4105 11.4357 46.2336 11.84 45.8799C12.2442 45.5262 12.4463 45.1074 12.4463 44.6233C12.4463 44.3999 12.3932 44.1765 12.2868 43.9531C12.1804 43.7297 12.0315 43.5436 11.84 43.3946C11.6485 43.2457 11.4357 43.1247 11.2017 43.0316C10.9677 42.9385 10.7017 42.892 10.4039 42.892H8.29756V35.7433H10.4039C10.7868 35.7433 11.1272 35.6596 11.4251 35.492C11.723 35.3245 11.9676 35.1104 12.1591 34.8498C12.3506 34.5891 12.4463 34.2913 12.4463 33.9562C12.4463 33.4721 12.2442 33.0626 11.84 32.7275C11.4357 32.3924 10.957 32.2249 10.4039 32.2249H8.29756V24.9645H10.4677C10.8507 24.9645 11.1911 24.89 11.4889 24.7411C11.7868 24.5922 12.0208 24.3874 12.191 24.1268C12.3612 23.8661 12.4463 23.5683 12.4463 23.2332C12.4463 23.0098 12.4038 22.7864 12.3187 22.563C12.2336 22.3396 12.0953 22.1534 11.9038 22.0045C11.7123 21.8556 11.4996 21.7346 11.2655 21.6415C11.0315 21.5484 10.7656 21.5019 10.4677 21.5019H8.29756V14.2973H10.2762C10.8294 14.2973 11.2974 14.1298 11.6804 13.7947C12.0634 13.4596 12.2549 13.05 12.2549 12.566C12.2549 12.082 12.0634 11.6631 11.6804 11.3094C11.2974 10.9557 10.8294 10.7789 10.2762 10.7789H8.29756V3.57433H40.9772V53.615H8.29756ZM51.1896 51.8278C51.1896 52.3119 50.9874 52.7307 50.5832 53.0844C50.179 53.4382 49.7003 53.615 49.1471 53.615H45.0621V3.57433H49.1471C49.7003 3.57433 50.179 3.75119 50.5832 4.1049C50.9874 4.45861 51.1896 4.87748 51.1896 5.3615V51.8278Z" fill="#EF4E58"/>
</svg>
