<svg width="59" height="55" viewBox="0 0 59 55" fill="none" xmlns="http://www.w3.org/2000/svg">
<path d="M50.4688 0.378785C48.8185 0.378076 47.2125 0.913038 45.8923 1.90326C44.5721 2.89349 43.6089 4.28548 43.1476 5.87001C42.6862 7.45453 42.7517 9.14599 43.334 10.6901C43.9164 12.2343 44.9842 13.5477 46.377 14.433L41.4015 31.8474C41.247 31.8376 41.0923 31.8324 40.9375 31.8319C39.2973 31.8301 37.7007 32.3601 36.3872 33.3424L27.195 25.6822C27.6302 24.3911 27.7115 23.0068 27.4303 21.6736C27.1492 20.3404 26.5159 19.1069 25.5965 18.1013C24.677 17.0958 23.5049 16.355 22.202 15.9561C20.8992 15.5571 19.5133 15.5145 18.1884 15.8328C16.8636 16.151 15.6482 16.8185 14.6687 17.7657C13.6893 18.7129 12.9815 19.9052 12.6191 21.2187C12.2567 22.5321 12.2528 23.9187 12.6079 25.2342C12.963 26.5496 13.6641 27.7459 14.6383 28.6985L9.2422 39.4912C9.00589 39.4688 8.76866 39.4573 8.53129 39.4569C6.70459 39.4546 4.93759 40.1073 3.55103 41.2965C2.16448 42.4857 1.25026 44.1327 0.974338 45.9384C0.698413 47.7442 1.07907 49.589 2.0472 51.138C3.01534 52.6871 4.50679 53.8377 6.25083 54.381C7.99487 54.9242 9.8759 54.8242 11.5525 54.099C13.2291 53.3738 14.5901 52.0715 15.3885 50.4286C16.1868 48.7856 16.3697 46.9108 15.9038 45.1445C15.4379 43.3782 14.3542 41.8375 12.8493 40.802L17.9485 30.6049C19.1872 30.9466 20.4922 30.9689 21.7419 30.6699C22.9915 30.3708 24.1451 29.76 25.0948 28.8945L33.9946 36.3112C33.3903 37.6431 33.1817 39.1206 33.3937 40.5677C33.6058 42.0147 34.2295 43.3703 35.1906 44.4727C36.1517 45.5751 37.4095 46.3779 38.8142 46.7853C40.2188 47.1927 41.711 47.1875 43.1128 46.7704C44.5146 46.3533 45.7668 45.5419 46.7203 44.4328C47.6737 43.3237 48.288 41.9639 48.4901 40.5154C48.6921 39.0669 48.4733 37.5908 47.8597 36.2632C47.2461 34.9356 46.2637 33.8125 45.0295 33.0277L50.0049 15.6133C50.1584 15.6226 50.3128 15.6288 50.4688 15.6288C52.4911 15.6288 54.4305 14.8254 55.8605 13.3955C57.2904 11.9655 58.0938 10.0261 58.0938 8.00379C58.0938 5.98151 57.2904 4.04206 55.8605 2.6121C54.4305 1.18213 52.4911 0.378785 50.4688 0.378785ZM8.53129 50.8944C7.77725 50.8944 7.04014 50.6708 6.41318 50.2519C5.78621 49.833 5.29756 49.2375 5.009 48.5409C4.72044 47.8442 4.64494 47.0777 4.79204 46.3381C4.93915 45.5986 5.30226 44.9193 5.83544 44.3861C6.36863 43.8529 7.04795 43.4898 7.78751 43.3427C8.52706 43.1956 9.29363 43.2711 9.99027 43.5596C10.6869 43.8482 11.2823 44.3368 11.7013 44.9638C12.1202 45.5908 12.3438 46.3279 12.3438 47.0819C12.3427 48.0927 11.9406 49.0618 11.2259 49.7765C10.5111 50.4912 9.54208 50.8933 8.53129 50.8944ZM19.9688 27.0663C19.2147 27.0663 18.4776 26.8427 17.8507 26.4238C17.2237 26.0048 16.7351 25.4094 16.4465 24.7128C16.1579 24.0161 16.0824 23.2496 16.2295 22.51C16.3766 21.7705 16.7398 21.0911 17.2729 20.5579C17.8061 20.0248 18.4855 19.6616 19.225 19.5145C19.9646 19.3674 20.7311 19.4429 21.4278 19.7315C22.1244 20.0201 22.7198 20.5087 23.1388 21.1357C23.5577 21.7626 23.7813 22.4997 23.7813 23.2538C23.7802 24.2646 23.3781 25.2336 22.6634 25.9484C21.9486 26.6631 20.9796 27.0651 19.9688 27.0663ZM40.9375 43.2694C40.1835 43.2694 39.4464 43.0458 38.8194 42.6269C38.1925 42.208 37.7038 41.6125 37.4152 40.9159C37.1267 40.2192 37.0512 39.4527 37.1983 38.7131C37.3454 37.9736 37.7085 37.2943 38.2417 36.7611C38.7749 36.2279 39.4542 35.8648 40.1938 35.7177C40.9333 35.5706 41.6999 35.6461 42.3965 35.9346C43.0932 36.2232 43.6886 36.7118 44.1075 37.3388C44.5264 37.9658 44.75 38.7029 44.75 39.4569C44.7489 40.4677 44.3469 41.4368 43.6321 42.1515C42.9174 42.8662 41.9483 43.2683 40.9375 43.2694ZM50.4688 11.8163C49.7147 11.8163 48.9776 11.5927 48.3507 11.1738C47.7237 10.7548 47.2351 10.1594 46.9465 9.46277C46.6579 8.76612 46.5824 7.99956 46.7295 7.26C46.8766 6.52045 47.2398 5.84113 47.7729 5.30794C48.3061 4.77475 48.9855 4.41165 49.725 4.26454C50.4646 4.11743 51.2311 4.19293 51.9278 4.48149C52.6244 4.77005 53.2198 5.25871 53.6388 5.88567C54.0577 6.51264 54.2813 7.24974 54.2813 8.00379C54.2802 9.01457 53.8781 9.98364 53.1634 10.6984C52.4486 11.4131 51.4796 11.8152 50.4688 11.8163Z" fill="#EF4E58"/>
</svg>
