<svg width="51" height="49" viewBox="0 0 51 49" fill="none" xmlns="http://www.w3.org/2000/svg">
<path d="M44.7173 8.53603C44.7284 8.55213 44.7452 8.56823 44.7563 8.58432C48.4144 12.7638 50.6149 18.1504 50.6149 24.0361C50.6149 29.9217 48.4145 35.3083 44.7619 39.4878C44.7508 39.5039 44.734 39.5146 44.7228 39.5307C44.6614 39.6005 44.6055 39.6648 44.5441 39.7292C44.5218 39.756 44.4994 39.7775 44.4771 39.8043L44.2481 40.0565L44.2425 40.0619C44.1588 40.1531 44.0694 40.2443 43.9856 40.3355L43.98 40.3409C43.8013 40.5233 43.6226 40.7057 43.4383 40.8827L43.4327 40.8881L43.1646 41.1456L43.1479 41.1617C43.0641 41.2422 42.9803 41.3173 42.8966 41.3924C42.8686 41.4193 42.8407 41.4461 42.8072 41.4729C42.7514 41.5266 42.6955 41.5748 42.6397 41.6231C42.6229 41.6392 42.6006 41.6553 42.5838 41.6768C38.1271 45.647 32.1568 48.0721 25.5946 48.0721C19.0323 48.0721 13.062 45.647 8.59972 41.6768C8.58296 41.6607 8.56062 41.6446 8.54387 41.6231C8.48802 41.5748 8.43217 41.5212 8.37632 41.4675C8.3484 41.4407 8.32047 41.4139 8.28696 41.3871C8.20319 41.3119 8.11942 41.2315 8.03564 41.1564L8.01889 41.1403L7.75081 40.8827L7.74523 40.8774C7.56093 40.7003 7.38221 40.5179 7.20349 40.3355L7.19791 40.3301C7.10855 40.2389 7.02478 40.1477 6.941 40.0565L6.93542 40.0511C6.85723 39.9707 6.77904 39.8848 6.70644 39.799C6.6841 39.7721 6.66176 39.7507 6.63942 39.7239C6.57798 39.6595 6.52213 39.5897 6.4607 39.5253C6.44953 39.5092 6.43278 39.4985 6.42161 39.4824C2.77467 35.3083 0.574219 29.9217 0.574219 24.0361C0.574219 18.1504 2.77467 12.7638 6.42719 8.58432C6.43836 8.56823 6.45512 8.55213 6.46629 8.53603L6.63942 8.33752C6.66176 8.3107 6.6841 8.28923 6.70644 8.26241L6.93542 8.01025C6.93542 8.00488 6.941 8.00488 6.941 7.99952C7.02478 7.90831 7.10855 7.8171 7.19791 7.73125L7.20349 7.72589C7.38221 7.54348 7.56093 7.36106 7.73964 7.18401L7.74523 7.17864C7.83459 7.0928 7.91836 7.00695 8.00772 6.92648L8.02447 6.91038C8.20877 6.73333 8.39866 6.56165 8.58855 6.39532C13.062 2.42509 19.0323 2.28882e-05 25.5946 2.28882e-05C32.1568 2.28882e-05 38.1271 2.42509 42.5894 6.39532C42.7797 6.56285 42.9659 6.73458 43.1479 6.91038L43.1646 6.92648C43.254 7.01232 43.3434 7.0928 43.4271 7.17864L43.4327 7.18401C43.617 7.36106 43.7957 7.54348 43.9689 7.72589L43.9745 7.73125C44.0582 7.82246 44.1476 7.90831 44.2314 7.99952C44.2314 8.00488 44.2369 8.00488 44.2369 8.01025C44.3151 8.09072 44.3933 8.17657 44.4659 8.26241C44.4883 8.28923 44.5106 8.3107 44.5329 8.33752C44.5961 8.40221 44.6576 8.4684 44.7173 8.53603ZM44.9462 16.1868C44.1755 14.4377 43.1591 12.8175 41.9192 11.3474C40.5229 12.5067 38.9962 13.5126 37.3675 14.3465C38.0154 16.8628 38.4175 19.6259 38.5236 22.5338H46.5379C46.3704 20.3394 45.8342 18.2095 44.9462 16.1868ZM46.5379 25.5383H38.5236C38.4175 28.4462 38.0154 31.2093 37.3675 33.7256C39.0039 34.5625 40.5286 35.5712 41.9192 36.7247C44.6143 33.5379 46.2265 29.6334 46.5379 25.5383ZM33.7653 42.6264C35.9825 41.7251 37.9986 40.4803 39.7746 38.9137C38.7429 38.0698 37.6324 37.3191 36.4572 36.6711C35.5804 39.0854 34.4578 41.1832 33.1509 42.8625C33.3576 42.7874 33.5642 42.7069 33.7653 42.6264ZM28.7053 5.03793C28.1915 4.65164 27.6777 4.35656 27.1583 4.15804V14.1105C29.3744 13.9619 31.5536 13.4879 33.6201 12.7048C33.1565 11.3849 32.6204 10.167 32.0004 9.06719C31.0287 7.32887 29.8893 5.93929 28.7053 5.03793ZM32.0004 39.0049C32.6148 37.8997 33.1565 36.6818 33.6201 35.3673C31.5536 34.5842 29.3744 34.1102 27.1583 33.9616V43.9087C27.6721 43.7102 28.1915 43.4205 28.7053 43.0288C29.8893 42.1328 31.0287 40.7432 32.0004 39.0049ZM27.1583 17.1203V22.5338H35.3961C35.3067 20.1624 34.9995 17.8607 34.4857 15.6771L34.469 15.6127C32.1252 16.4665 29.6604 16.9748 27.1583 17.1203ZM27.1583 25.5383V30.9518C29.7162 31.102 32.1736 31.6224 34.469 32.4594L34.4857 32.395C34.9995 30.2114 35.3067 27.9151 35.3961 25.5383H27.1583ZM24.0308 22.5338V17.1203C21.4729 16.9701 19.0156 16.4497 16.7202 15.6127L16.7034 15.6771C16.1896 17.8607 15.8824 20.157 15.7931 22.5338H24.0308ZM15.7931 25.5383C15.8824 27.9097 16.1896 30.2114 16.7034 32.395L16.7202 32.4594C19.0156 31.6224 21.4673 31.102 24.0308 30.9518V25.5383H15.7931ZM24.0308 14.1105V4.16341C23.517 4.36192 22.9976 4.65164 22.4838 5.0433C21.2998 5.93929 20.1549 7.33423 19.1831 9.07255C18.5688 10.1778 18.027 11.3957 17.5635 12.7101C19.6411 13.4935 21.8024 13.9602 24.0308 14.1105ZM24.0308 33.9616C21.8148 34.1102 19.6355 34.5842 17.5691 35.3673C18.0326 36.6872 18.5688 37.9051 19.1887 39.0049C20.1605 40.7432 21.2998 42.1382 22.4894 43.0342C23.0032 43.4205 23.517 43.7156 24.0364 43.9141V33.9616H24.0308ZM17.4239 42.6264C17.6305 42.7069 17.8316 42.7874 18.0382 42.8625C16.7313 41.1832 15.6088 39.0854 14.7319 36.6711C13.5591 37.3149 12.4477 38.066 11.4145 38.9137C13.1905 40.4803 15.2067 41.7251 17.4239 42.6264ZM6.24289 31.8853C7.01361 33.6344 8.03006 35.2547 9.2699 36.7247C10.6605 35.5712 12.1852 34.5625 13.8216 33.7256C13.1737 31.2093 12.7716 28.4462 12.6655 25.5383H4.65119C4.81874 27.7327 5.35489 29.8626 6.24289 31.8853ZM4.65119 22.5338H12.6655C12.7716 19.6259 13.1737 16.8628 13.8216 14.3465C12.1929 13.5126 10.6662 12.5067 9.2699 11.3474C6.5748 14.5342 4.96265 18.4388 4.65119 22.5338ZM17.4239 5.44569C15.2067 6.34704 13.1905 7.59176 11.4145 9.1584C12.4477 10.0061 13.5591 10.7519 14.7319 11.401C15.6088 8.98671 16.7313 6.88892 18.0382 5.20962C17.8316 5.28473 17.6249 5.36521 17.4239 5.44569ZM33.7653 5.44569C33.5586 5.36521 33.3576 5.28473 33.1509 5.20962C34.4578 6.88892 35.5804 8.98671 36.4572 11.401C37.63 10.7572 38.7414 10.0061 39.7746 9.1584C38.0085 7.59829 35.9756 6.34233 33.7653 5.44569Z" fill="#EF4E58"/>
</svg>
