<svg width="29" height="29" viewBox="0 0 29 29" fill="none" xmlns="http://www.w3.org/2000/svg">
<g clip-path="url(#clip0_4_10)">
<path d="M23.2391 14.2093C23.2391 9.54224 19.4578 5.7609 14.7907 5.7609C10.1236 5.7609 6.3423 9.54224 6.3423 14.2093C6.3423 18.426 9.43175 21.9212 13.4706 22.5555V16.6515H11.3245V14.2093H13.4706V12.3479C13.4706 10.2307 14.7311 9.06123 16.6616 9.06123C17.5862 9.06123 18.553 9.22611 18.553 9.22611V11.3041H17.4874C16.4381 11.3041 16.1108 11.9555 16.1108 12.6235V14.2093H18.4538L18.0791 16.6515H16.1108V22.5555C20.1496 21.9212 23.2391 18.426 23.2391 14.2093Z" fill="white"/>
</g>
<circle cx="14.5" cy="14.5" r="13.5" stroke="white" stroke-width="2"/>
<defs>
<clipPath id="clip0_4_10">
<rect width="17.4419" height="17.4419" fill="white" transform="translate(6.06977 5.48837)"/>
</clipPath>
</defs>
</svg>
