<svg width="290" height="127" viewBox="0 0 290 127" fill="none" xmlns="http://www.w3.org/2000/svg">
<g clip-path="url(#clip0_1526_13645)">
<path d="M0 51.2L40.3 61.2L40.5 60.1L0.2 50.2L0 51.2Z" fill="white"/>
<path d="M25 0.5L44.4 37.2L45.3 36.6L25.9 0L25 0.5Z" fill="white"/>
<path d="M69.0998 2.20001L59.7998 26.6L60.7998 27L70.0998 2.60001L69.0998 2.20001Z" fill="white"/>
<path d="M10.2 16C10.2 16 44 18.2 42.1 56.2C42.1 56.2 7.49999 49.1 10.2 16Z" fill="white"/>
<path d="M49.8001 1.70001C49.8001 1.70001 33.9001 16.1 49.8001 34.2C49.8001 34.3 64.1001 17.1 49.8001 1.70001Z" fill="white"/>
<path d="M89.1996 10.4C89.1996 10.4 72.2996 6.00001 67.0996 24.9C67.0996 24.9 85.1996 27 89.1996 10.4Z" fill="white"/>
<path fill-rule="evenodd" clip-rule="evenodd" d="M102.3 55.9C100.6 54.6 98.9997 53.3 97.2997 52.1C95.9997 51.1 95.5997 49.8 95.5997 48.2C95.4997 46 95.1997 43.7 94.8997 41.5C94.7997 40.8 95.1997 40.2 94.8997 39.6C89.9997 29.3 75.9997 26.2 65.6997 28.9C59.5997 30.5 53.8997 34.6 50.6997 40.1C48.8997 43.2 47.8997 46.8 47.4997 50.5C46.7997 50.9 46.0997 51.4 45.3997 52C44.6997 55.9 45.7997 59.7 47.6997 63.1C58.0997 66.3 73.3997 73.8 81.1997 91.8C81.1997 90.7 81.2997 89.7 81.4997 88.4C82.1997 81.4 87.5997 77.5 94.4997 76.4C96.2997 76.1 98.0997 75.8 99.6997 75.2C102.4 74.1 102.9 72.6 101.8 69.9C101.6 69.5 101.5 68.6 101.7 68.5C103.4 67 103 65.8 101.2 64.6C105 62.8 101.4 61.5 101.1 60C101.6 59.6 102.1 59.1 102.5 58.7C104 57.4 104 57.2 102.3 55.9Z" fill="white"/>
<path d="M34.7 64.7C34.7 64.7 86.6 68.1 83.8 126.6C83.8 126.6 30.6 115.6 34.7 64.7Z" fill="white"/>
<path d="M101.3 123.7L110.3 81.3H121.2L117.9 96.7H132.6L135.9 81.3H146.8L137.8 123.7H126.9L130.7 105.8H116L112.2 123.7H101.3V123.7Z" fill="white"/>
<path d="M162.599 120.4C161.199 121.7 159.699 122.7 158.099 123.4C156.499 124.1 154.699 124.4 152.899 124.4C150.099 124.4 147.799 123.5 145.999 121.9C144.299 120.2 143.399 117.9 143.399 115.1C143.399 112 144.399 109.6 146.299 107.9C148.199 106.2 151.299 105.1 155.299 104.6C156.099 104.5 157.299 104.4 158.799 104.3C163.099 103.9 165.199 102.8 165.199 100.9C165.199 100.1 164.899 99.4 164.099 98.8C163.399 98.3 162.499 98 161.399 98C160.099 98 158.999 98.2 158.299 98.7C157.499 99.2 156.999 100 156.699 101H146.999C147.799 97.7 149.399 95.3 151.799 93.7C154.299 92.1 157.599 91.2 161.699 91.2C165.899 91.2 169.199 92.1 171.499 93.8C173.899 95.5 174.999 98 174.999 101C174.999 101.6 174.999 102.2 174.899 102.6C174.899 103.1 174.799 103.5 174.699 103.9L171.799 118.3C171.699 118.6 171.699 118.9 171.699 119.3C171.699 119.6 171.699 120 171.699 120.4C171.699 120.9 171.799 121.4 171.899 121.7C171.999 122 172.199 122.4 172.499 122.6V123.6H162.499V120.4H162.599ZM163.999 108.8C162.899 109.2 161.299 109.6 159.199 110C155.499 110.7 153.599 112.1 153.599 114.3C153.599 115.3 153.899 116.1 154.599 116.7C155.299 117.3 156.199 117.6 157.199 117.6C159.199 117.6 160.699 117 161.699 115.7C162.599 114.5 163.399 112.2 163.999 108.8Z" fill="white"/>
<path d="M215.799 81.3L206.799 123.7H197.099L197.999 119.6C196.799 121.3 195.299 122.6 193.699 123.4C192.099 124.3 190.199 124.7 188.299 124.7C184.899 124.7 182.199 123.6 180.299 121.3C178.399 119 177.399 115.8 177.399 111.7C177.399 105.8 178.899 100.9 181.899 97C184.899 93.1 188.699 91.2 193.199 91.2C195.299 91.2 197.099 91.7 198.599 92.8C200.099 93.9 201.299 95.4 202.099 97.5L205.599 81.1H215.799V81.3ZM192.499 116.8C194.699 116.8 196.499 115.7 197.999 113.6C199.499 111.4 200.199 108.8 200.199 105.7C200.199 103.9 199.799 102.4 198.899 101.4C197.999 100.4 196.799 99.8 195.299 99.8C193.199 99.8 191.399 100.9 189.999 103C188.599 105.2 187.899 107.8 187.899 111C187.899 112.9 188.299 114.3 189.099 115.3C189.799 116.4 190.899 116.8 192.499 116.8Z" fill="white"/>
<path d="M213.899 110.2C213.899 104.6 215.599 100 219.099 96.4C222.599 92.9 227.099 91.1 232.699 91.1C237.599 91.1 241.399 92.4 244.199 95.1C246.999 97.7 248.399 101.4 248.399 105.9C248.399 111.4 246.599 115.9 243.099 119.5C239.599 123 234.999 124.8 229.399 124.8C224.599 124.8 220.799 123.5 217.999 120.8C215.299 118.3 213.899 114.7 213.899 110.2ZM232.499 98.9C230.099 98.9 228.099 100 226.499 102.2C224.899 104.4 224.099 107.1 224.099 110.4C224.099 112.6 224.599 114.3 225.599 115.5C226.599 116.7 227.999 117.3 229.799 117.3C232.199 117.3 234.199 116.2 235.899 113.9C237.499 111.6 238.299 108.8 238.299 105.4C238.299 103.3 237.799 101.7 236.799 100.6C235.699 99.4 234.299 98.9 232.499 98.9Z" fill="white"/>
<path d="M266.8 116.7L265.3 123.7C264.1 123.9 263.2 124 262.4 124C261.7 124.1 261 124.1 260.3 124.1C257.3 124.1 255.1 123.5 253.6 122.3C252.1 121.1 251.4 119.4 251.4 117C251.4 116.5 251.4 115.8 251.5 115.1C251.6 114.4 251.7 113.6 251.9 112.8L255 98.2H251L252.3 92.3H256.4L258.4 83H268.7L266.8 92.3H272.1L270.9 98.2H265.6L262.9 111.1C262.8 111.9 262.6 112.5 262.6 113.2C262.5 113.8 262.5 114.3 262.5 114.6C262.5 115.3 262.7 115.9 263.2 116.2C263.7 116.6 264.3 116.8 265.2 116.8C265.5 116.8 266 116.7 266.7 116.6C266.6 116.7 266.8 116.7 266.8 116.7Z" fill="white"/>
<path d="M269.8 123.7L276.5 92.4H286.7L280 123.7H269.8ZM277.2 88.9L278.9 80.9H289.2L287.5 88.9H277.2Z" fill="white"/>
</g>
<defs>
<clipPath id="clip0_1526_13645">
<rect width="289.1" height="126.6" fill="white"/>
</clipPath>
</defs>
</svg>
