<svg width="29" height="29" viewBox="0 0 29 29" fill="none" xmlns="http://www.w3.org/2000/svg">
<circle cx="14.5" cy="14.5" r="13.5" stroke="white" stroke-width="2"/>
<g clip-path="url(#clip0_5_5)">
<path d="M14.5041 10.3822C11.9014 10.3822 9.80208 12.2191 9.80208 14.4964C9.80208 16.7738 11.9014 18.6107 14.5041 18.6107C17.1068 18.6107 19.2061 16.7738 19.2061 14.4964C19.2061 12.2191 17.1068 10.3822 14.5041 10.3822ZM14.5041 17.1712C12.8222 17.1712 11.4472 15.9717 11.4472 14.4964C11.4472 13.0212 12.8181 11.8216 14.5041 11.8216C16.1901 11.8216 17.561 13.0212 17.561 14.4964C17.561 15.9717 16.186 17.1712 14.5041 17.1712V17.1712ZM20.4952 10.2139C20.4952 10.7474 20.0041 11.1735 19.3984 11.1735C18.7887 11.1735 18.3017 10.7438 18.3017 10.2139C18.3017 9.68392 18.7928 9.25423 19.3984 9.25423C20.0041 9.25423 20.4952 9.68392 20.4952 10.2139ZM23.6094 11.1878C23.5398 9.90234 23.2042 8.76367 22.128 7.82552C21.0558 6.88737 19.7545 6.59375 18.2853 6.5293C16.7712 6.4541 12.2329 6.4541 10.7188 6.5293C9.25372 6.59017 7.95238 6.88379 6.87612 7.82194C5.79985 8.76009 5.46838 9.89876 5.39472 11.1842C5.30878 12.5091 5.30878 16.4801 5.39472 17.805C5.46429 19.0905 5.79985 20.2292 6.87612 21.1673C7.95238 22.1055 9.24963 22.3991 10.7188 22.4635C12.2329 22.5387 16.7712 22.5387 18.2853 22.4635C19.7545 22.4027 21.0558 22.109 22.128 21.1673C23.2001 20.2292 23.5357 19.0905 23.6094 17.805C23.6953 16.4801 23.6953 12.5127 23.6094 11.1878V11.1878ZM21.6533 19.2266C21.3341 19.9284 20.7161 20.4691 19.91 20.752C18.7028 21.1709 15.8382 21.0742 14.5041 21.0742C13.17 21.0742 10.3013 21.1673 9.09821 20.752C8.29613 20.4727 7.6782 19.932 7.35491 19.2266C6.87612 18.1702 6.98661 15.6637 6.98661 14.4964C6.98661 13.3291 6.88021 10.819 7.35491 9.76628C7.67411 9.06445 8.29204 8.52376 9.09821 8.24088C10.3054 7.82194 13.17 7.91862 14.5041 7.91862C15.8382 7.91862 18.7068 7.82552 19.91 8.24088C20.7121 8.52018 21.33 9.06087 21.6533 9.76628C22.1321 10.8226 22.0216 13.3291 22.0216 14.4964C22.0216 15.6637 22.1321 18.1738 21.6533 19.2266Z" fill="white"/>
</g>
<defs>
<clipPath id="clip0_5_5">
<rect width="18.3333" height="18.3333" fill="white" transform="translate(5.33333 5.33333)"/>
</clipPath>
</defs>
</svg>
