<svg width="29" height="29" viewBox="0 0 29 29" fill="none" xmlns="http://www.w3.org/2000/svg">
<path d="M20.2734 10.8549C20.2826 11.0139 20.2826 11.1729 20.2826 11.3318C20.2826 16.1806 17.2853 21.7674 11.807 21.7674C10.1192 21.7674 8.55141 21.1656 7.23256 20.1209C7.47236 20.155 7.7029 20.1663 7.95193 20.1663C9.34453 20.1663 10.6265 19.5872 11.6502 18.5993C10.3406 18.5652 9.24309 17.5092 8.86496 16.0557C9.04943 16.0897 9.23387 16.1124 9.42756 16.1124C9.69501 16.1124 9.96249 16.067 10.2115 15.9876C8.84653 15.6469 7.82279 14.1707 7.82279 12.3879V12.3425C8.21935 12.615 8.68052 12.7853 9.16928 12.808C8.36691 12.1494 7.84124 11.0252 7.84124 9.75342C7.84124 9.07211 7.98877 8.44757 8.24702 7.90251C9.71344 10.1282 11.9177 11.5816 14.3893 11.7406C14.3432 11.4681 14.3155 11.1842 14.3155 10.9003C14.3155 8.87907 15.6436 7.23256 17.2945 7.23256C18.1522 7.23256 18.9269 7.67541 19.471 8.3908C20.1442 8.23184 20.7898 7.92523 21.3617 7.50509C21.1403 8.35676 20.6699 9.07215 20.052 9.52633C20.6515 9.44688 21.2325 9.24244 21.7674 8.95859C21.3617 9.6853 20.8544 10.3325 20.2734 10.8549V10.8549Z" fill="white"/>
<circle cx="14.5" cy="14.5" r="13.5" stroke="white" stroke-width="2"/>
</svg>
