<svg width="29" height="29" viewBox="0 0 29 29" fill="none" xmlns="http://www.w3.org/2000/svg">
<circle cx="14.5" cy="14.5" r="13.5" stroke="white" stroke-width="2"/>
<path d="M22.2101 9.12846C22.0261 8.14304 21.4839 7.36696 20.7955 7.10358C19.5478 6.625 14.5444 6.625 14.5444 6.625C14.5444 6.625 9.54112 6.625 8.29334 7.10358C7.60495 7.367 7.06278 8.14304 6.87877 9.12846C6.54443 10.9146 6.54443 14.6412 6.54443 14.6412C6.54443 14.6412 6.54443 18.3678 6.87877 20.1539C7.06278 21.1393 7.60495 21.883 8.29334 22.1464C9.54112 22.625 14.5444 22.625 14.5444 22.625C14.5444 22.625 19.5477 22.625 20.7955 22.1464C21.4839 21.883 22.0261 21.1393 22.2101 20.1539C22.5444 18.3678 22.5444 14.6412 22.5444 14.6412C22.5444 14.6412 22.5444 10.9146 22.2101 9.12846V9.12846ZM12.9081 18.0246V11.2577L17.0899 14.6413L12.9081 18.0246V18.0246Z" fill="white"/>
</svg>
