<svg width="246" height="255" viewBox="0 0 246 255" fill="none" xmlns="http://www.w3.org/2000/svg">
<path d="M122.989 250.476C188.153 250.476 240.978 195.524 240.978 127.738C240.978 59.9516 188.153 5 122.989 5C57.8256 5 5 59.9516 5 127.738C5 195.524 57.8256 250.476 122.989 250.476Z" fill="#FFE6E9" stroke="white" stroke-width="8.5162" stroke-miterlimit="10"/>
<g clip-path="url(#clip0_1342_13360)">
<path fill-rule="evenodd" clip-rule="evenodd" d="M122.313 178.14C117.157 178.14 112.118 178.14 106.962 178.14C103.799 178.14 103.33 177.79 103.213 174.753C102.51 163.658 98.2911 153.847 92.3149 144.62C87.862 137.729 83.6435 130.722 81.8858 122.429C77.1986 99.6547 93.3695 77.1135 116.688 74.4272C138.015 71.9745 156.881 84.1211 162.389 103.859C165.67 115.655 163.092 126.751 157.116 137.146C153.249 143.92 148.913 150.577 145.749 157.818C143.523 162.957 142.82 168.913 141.765 174.52C141.179 177.79 141.062 178.14 137.664 178.14C132.625 178.14 127.469 178.14 122.313 178.14ZM136.961 173.235C140.242 156.417 141.062 154.314 150.085 139.715C151.257 137.846 152.429 135.861 153.483 133.875C157.936 125.933 160.162 117.407 158.522 108.297C154.772 88.0921 134.617 75.128 114.462 79.7997C96.1818 84.0043 84.4638 99.5379 86.3387 117.991C86.6902 121.962 88.2135 125.933 89.5025 129.788C90.3228 132.24 91.729 134.459 93.1351 136.678C100.283 148.007 107.08 159.453 107.9 173.352C117.626 173.235 127.235 173.235 136.961 173.235Z" fill="#EF4E58"/>
<path fill-rule="evenodd" clip-rule="evenodd" d="M122.664 186.549C117.626 186.549 112.587 186.549 107.548 186.549C105.908 186.549 104.384 186.199 104.384 184.213C104.267 182.228 105.79 181.761 107.431 181.761C117.509 181.761 127.586 181.761 137.546 181.761C139.187 181.761 140.71 182.228 140.593 184.213C140.593 186.199 139.07 186.549 137.429 186.549C132.508 186.549 127.586 186.549 122.664 186.549Z" fill="#EF4E58"/>
<path fill-rule="evenodd" clip-rule="evenodd" d="M122.431 194.958C117.978 194.958 113.525 194.958 109.072 194.958C107.314 194.958 105.674 194.725 105.674 192.506C105.674 190.403 107.197 190.053 108.955 190.053C117.978 190.053 126.884 190.053 135.906 190.053C137.664 190.053 139.187 190.403 139.187 192.506C139.187 194.608 137.43 194.842 135.789 194.842C131.336 194.958 126.884 194.958 122.431 194.958Z" fill="#EF4E58"/>
<path fill-rule="evenodd" clip-rule="evenodd" d="M122.547 198.579C125.008 198.579 127.352 198.579 129.812 198.579C131.336 198.579 132.508 199.28 132.508 200.915C132.508 202.55 131.57 203.368 129.93 203.368C125.008 203.368 120.086 203.368 115.048 203.368C113.407 203.368 112.353 202.667 112.353 201.032C112.353 199.28 113.524 198.579 115.165 198.579C117.743 198.579 120.086 198.579 122.547 198.579Z" fill="#EF4E58"/>
<path fill-rule="evenodd" clip-rule="evenodd" d="M120.087 58.4264C120.087 56.5577 120.087 54.8058 120.087 52.9371C120.087 51.4188 120.79 50.2509 122.431 50.2509C124.188 50.2509 124.891 51.4188 125.008 53.0539C125.008 56.6745 125.008 60.4119 125.008 64.0325C125.008 65.6676 124.305 66.8356 122.548 66.8356C120.79 66.8356 120.204 65.5509 120.087 63.9157C120.087 62.1638 120.087 60.2951 120.087 58.4264Z" fill="#EF4E58"/>
<path fill-rule="evenodd" clip-rule="evenodd" d="M64.1916 119.042C62.3167 119.042 60.4418 119.276 58.6841 118.926C57.6295 118.692 56.2233 117.524 56.1061 116.59C55.7546 114.955 57.1607 114.137 58.8013 114.137C62.4339 114.137 66.1837 114.137 69.8163 114.137C71.4568 114.137 72.6286 114.838 72.6286 116.59C72.6286 118.225 71.4568 118.926 69.9334 118.926C67.9414 119.042 66.0665 119.042 64.1916 119.042Z" fill="#EF4E58"/>
<path fill-rule="evenodd" clip-rule="evenodd" d="M180.552 119.042C178.795 119.042 177.037 119.042 175.279 119.042C173.639 119.042 172.35 118.458 172.35 116.707C172.35 114.838 173.521 114.254 175.162 114.254C178.795 114.254 182.544 114.254 186.177 114.254C187.7 114.254 188.872 114.838 188.989 116.473C189.106 118.225 187.935 119.042 186.294 119.042C184.419 119.042 182.427 119.042 180.552 119.042Z" fill="#EF4E58"/>
<path fill-rule="evenodd" clip-rule="evenodd" d="M180.435 85.1722C180.083 85.5226 179.497 86.4569 178.794 86.9241C175.748 88.7928 172.584 90.5447 169.42 92.4134C168.014 93.231 166.607 93.3478 165.67 91.8294C164.733 90.3111 165.436 89.1432 166.842 88.3256C170.123 86.4569 173.287 84.4714 176.685 82.7195C178.56 81.5516 180.552 82.7195 180.435 85.1722Z" fill="#EF4E58"/>
<path fill-rule="evenodd" clip-rule="evenodd" d="M79.6597 143.219C79.3082 143.569 78.8395 144.387 78.1364 144.854C74.9725 146.723 71.8086 148.591 68.5276 150.343C67.1214 151.161 65.7152 151.278 64.7778 149.759C63.8403 148.241 64.5434 147.073 66.0668 146.255C69.2307 144.387 72.3945 142.518 75.6756 140.766C77.7848 139.598 79.7769 140.649 79.6597 143.219Z" fill="#EF4E58"/>
<path fill-rule="evenodd" clip-rule="evenodd" d="M167.428 139.949C168.365 140.416 169.069 140.533 169.654 140.883C172.701 142.635 175.748 144.387 178.795 146.139C180.201 146.956 181.138 148.007 180.201 149.642C179.263 151.394 177.857 151.161 176.334 150.343C173.17 148.475 169.889 146.723 166.842 144.737C166.139 144.27 165.553 142.868 165.67 141.817C165.553 141.117 166.725 140.533 167.428 139.949Z" fill="#EF4E58"/>
<path fill-rule="evenodd" clip-rule="evenodd" d="M98.7602 71.8577C98.4086 72.3249 97.9399 73.2593 97.2368 73.4928C96.5338 73.7264 95.1276 73.6096 94.776 73.1425C92.4324 69.2883 90.206 65.4341 88.0968 61.4631C87.8624 60.9959 88.5655 59.4776 89.2686 59.1272C89.9716 58.7768 91.6122 59.0104 91.9637 59.4776C94.3073 63.215 96.4166 67.0692 98.643 70.9234C98.7602 71.0402 98.7602 71.2738 98.7602 71.8577Z" fill="#EF4E58"/>
<path fill-rule="evenodd" clip-rule="evenodd" d="M154.069 58.7768C156.296 58.66 157.585 60.2951 156.765 62.047C154.89 65.7844 152.78 69.405 150.437 72.9088C150.085 73.4928 148.093 73.8432 147.507 73.4928C146.804 73.0256 146.218 71.2737 146.57 70.573C148.445 66.9523 150.554 63.4485 152.663 59.9447C152.898 59.244 153.718 59.0104 154.069 58.7768Z" fill="#EF4E58"/>
<path fill-rule="evenodd" clip-rule="evenodd" d="M79.6597 90.0776C79.6597 92.2967 77.902 93.4646 76.2614 92.6471C72.6288 90.7784 69.1134 88.6761 65.598 86.457C64.8949 85.9898 64.4262 84.1211 64.7777 83.5372C65.3637 82.8364 67.1214 82.1356 67.8244 82.486C71.457 84.2379 74.8553 86.3402 78.2535 88.4425C79.0738 88.9097 79.4253 89.7272 79.6597 90.0776Z" fill="#EF4E58"/>
<path fill-rule="evenodd" clip-rule="evenodd" d="M112.236 130.722C111.298 131.539 110.244 132.24 109.424 133.175C107.783 134.926 106.611 134.576 105.088 132.941C102.276 129.904 102.041 129.904 104.971 126.868C106.26 125.466 106.611 124.298 105.439 122.78C105.322 122.546 105.205 122.313 105.088 122.079C104.619 119.276 102.979 118.225 100.166 118.575C97.7055 118.809 97.0024 117.407 97.2368 115.188C97.354 113.086 96.7681 110.867 100.166 110.984C101.338 111.1 103.213 111.1 103.682 110.4C104.854 108.881 105.674 106.896 106.025 105.027C106.143 104.21 104.736 103.042 104.15 101.991C103.565 101.056 102.627 99.5379 102.861 99.0707C103.916 97.5524 105.439 96.2677 106.963 95.2165C107.314 94.9829 108.838 96.0341 109.541 96.7348C111.064 98.37 112.47 98.6035 114.697 97.6692C117.743 96.6181 118.681 94.9829 118.564 92.0631C118.446 90.0776 119.501 89.3768 121.376 89.4936C122.196 89.6104 123.134 89.26 123.837 89.6104C124.657 89.9608 125.946 90.8952 125.829 91.3623C125.36 95.6837 127.938 97.202 131.336 98.1364C131.922 98.2532 132.743 98.1364 133.328 98.0196C133.797 97.9028 134.149 97.4356 134.5 97.0852C137.313 94.6326 140.242 95.2165 141.765 98.8371C142 99.3043 141.765 100.239 141.414 100.823C140.828 101.757 139.891 102.458 139.422 103.392C139.07 104.093 139.07 105.144 139.07 105.962C139.07 106.195 139.305 106.429 139.422 106.662C140.008 110.166 142.117 111.451 145.515 111.1C147.039 110.984 147.624 111.801 147.507 113.32C147.507 113.553 147.507 113.787 147.507 114.02C147.507 118.342 147.507 118.459 143.172 118.575C141.297 118.575 140.359 119.159 140.125 121.028C140.008 121.495 139.891 122.079 139.539 122.43C138.016 124.415 138.719 125.817 140.242 127.335C141.062 128.152 142.117 129.904 141.765 130.371C140.711 131.89 139.305 133.291 137.664 134.342C137.195 134.576 135.789 133.408 134.852 132.824C133.914 132.24 132.86 130.955 132.039 131.072C130.165 131.539 128.055 132.24 126.649 133.525C125.829 134.226 126.063 136.211 126.063 137.613C126.063 139.481 125.126 140.182 123.368 139.949C123.017 139.949 122.665 139.949 122.313 139.949C118.798 139.949 118.564 139.949 118.446 136.445C118.329 134.109 117.743 132.707 115.283 132.24C114.462 132.007 113.408 131.306 112.236 130.722ZM122.431 125.7C128.524 125.7 133.446 120.794 133.563 114.721C133.563 108.765 128.524 103.626 122.431 103.742C116.454 103.742 111.533 108.765 111.416 114.604C111.416 120.678 116.337 125.7 122.431 125.7Z" fill="#EF4E58"/>
</g>
<defs>
<clipPath id="clip0_1342_13360">
<rect width="133" height="153" fill="white" transform="translate(55.9893 50.2509)"/>
</clipPath>
</defs>
</svg>
