<svg width="248" height="250" viewBox="0 0 248 250" fill="none" xmlns="http://www.w3.org/2000/svg">
<path d="M241.404 130.786C244.557 65.3229 194.35 9.51118 129.265 6.12722C64.1794 2.74325 8.8614 53.0685 5.70862 118.532C2.55584 183.995 52.7622 239.807 117.848 243.191C182.933 246.575 238.251 196.25 241.404 130.786Z" fill="#FFE6E9" stroke="white" stroke-width="8.5162" stroke-miterlimit="10"/>
<path d="M52.9024 111.249C59.4573 111.249 64.8555 105.641 64.8555 98.8298C64.8555 92.0191 59.4573 86.4103 52.9024 86.4103C46.3474 86.4103 40.9492 92.0191 40.9492 98.8298C40.9492 105.641 46.2189 111.249 52.9024 111.249ZM52.9024 89.4818C57.915 89.4818 62.0279 93.7552 62.0279 98.9634C62.0279 104.172 57.915 108.445 52.9024 108.445C47.8898 108.445 43.7768 104.172 43.7768 98.9634C43.7768 93.6216 47.8898 89.4818 52.9024 89.4818Z" fill="#EF4E58"/>
<path d="M211.121 130.346C211.121 120.864 203.666 113.119 194.541 113.119C190.299 113.119 186.315 114.855 183.359 117.659C179.118 112.718 173.077 109.647 166.265 109.647C159.967 109.647 154.183 112.318 149.942 116.725C144.158 108.979 135.161 104.038 125.007 104.038C114.725 104.038 105.599 109.113 99.8154 117.125C95.5739 112.585 89.6616 109.78 83.1067 109.78C75.7805 109.78 69.3541 113.252 65.1127 118.728C62.028 115.256 57.7865 113.119 52.9025 113.119C43.7769 113.119 36.3223 120.864 36.3223 130.346V157.322H60.1001V171.21H93.2604V188.437H156.625V171.21H189.271V157.322H211.121V130.346ZM39.1499 154.384V130.346C39.1499 122.467 45.3193 116.057 52.9025 116.057C57.1439 116.057 60.8712 118.06 63.4418 121.132C61.2568 124.737 60.1001 129.011 60.1001 133.551V154.25H39.1499V154.384ZM63.9559 133.551C63.9559 130.613 64.5986 127.809 65.6268 125.405C65.6268 125.405 66.5265 123.268 67.4262 122.2C70.8965 117.125 76.5517 113.787 82.9781 113.787C88.7619 113.787 93.9031 116.458 97.3733 120.597C94.6742 125.405 93.2604 130.88 93.2604 136.89V167.07H63.9559V133.551ZM151.098 182.695H98.7872V136.89C98.7872 133.15 99.5583 129.678 100.844 126.34C100.844 126.34 101.615 124.069 103.157 121.799C107.913 114.454 115.881 109.647 125.007 109.647C133.875 109.647 141.716 114.187 146.471 121.265C146.471 121.265 148.528 124.203 148.785 125.538C150.327 129.011 151.098 132.75 151.098 136.89V182.695ZM185.287 167.07H156.625V136.89C156.625 130.747 154.954 125.004 152.255 120.197C155.725 116.324 160.738 113.787 166.265 113.787C172.048 113.787 177.318 116.458 180.788 120.731L182.588 123.402C184.259 126.34 185.287 129.812 185.287 133.551V167.07ZM208.165 154.384H189.143V133.685C189.143 128.61 187.6 123.936 185.03 120.063C187.472 117.659 190.814 116.19 194.412 116.19C201.996 116.19 208.165 122.601 208.165 130.48V154.384Z" fill="#EF4E58"/>
<path d="M194.541 111.249C201.096 111.249 206.494 105.641 206.494 98.8298C206.494 92.0191 201.096 86.4103 194.541 86.4103C187.986 86.4103 182.588 92.0191 182.588 98.8298C182.588 105.641 187.858 111.249 194.541 111.249ZM194.541 89.4818C199.554 89.4818 203.666 93.7552 203.666 98.9634C203.666 104.172 199.554 108.445 194.541 108.445C189.528 108.445 185.416 104.172 185.416 98.9634C185.416 93.6216 189.528 89.4818 194.541 89.4818Z" fill="#EF4E58"/>
<path d="M83.1066 107.109C92.2321 107.109 99.6868 99.364 99.6868 89.8824C99.6868 80.4008 92.2321 72.6553 83.1066 72.6553C73.981 72.6553 66.5264 80.4008 66.5264 89.8824C66.5264 99.364 73.8525 107.109 83.1066 107.109ZM83.1066 76.7951C90.0471 76.7951 95.7024 82.671 95.7024 89.8824C95.7024 97.0937 90.0471 102.97 83.1066 102.97C76.166 102.97 70.5108 97.0937 70.5108 89.8824C70.5108 82.671 76.166 76.7951 83.1066 76.7951Z" fill="#EF4E58"/>
<path d="M166.136 107.109C175.261 107.109 182.716 99.364 182.716 89.8824C182.716 80.4008 175.39 72.6553 166.136 72.6553C157.01 72.6553 149.556 80.4008 149.556 89.8824C149.556 99.364 157.01 107.109 166.136 107.109ZM166.136 76.7951C173.076 76.7951 178.732 82.671 178.732 89.8824C178.732 97.0937 173.076 102.97 166.136 102.97C159.195 102.97 153.54 97.0937 153.54 89.8824C153.54 82.671 159.195 76.7951 166.136 76.7951Z" fill="#EF4E58"/>
<path d="M124.878 100.566C137.474 100.566 147.628 89.8824 147.628 76.9287C147.628 63.8414 137.346 53.2915 124.878 53.2915C112.283 53.2915 102.129 63.975 102.129 76.9287C102.129 89.8824 112.411 100.566 124.878 100.566ZM124.878 58.9003C134.39 58.9003 142.23 66.9129 142.23 76.9287C142.23 86.8109 134.518 94.9571 124.878 94.9571C115.367 94.9571 107.527 86.9445 107.527 76.9287C107.656 66.9129 115.367 58.9003 124.878 58.9003Z" fill="#EF4E58"/>
</svg>
