<svg width="246" height="255" viewBox="0 0 246 255" fill="none" xmlns="http://www.w3.org/2000/svg">
<path d="M122.989 250.476C188.153 250.476 240.978 195.524 240.978 127.738C240.978 59.9516 188.153 5 122.989 5C57.8256 5 5 59.9516 5 127.738C5 195.524 57.8256 250.476 122.989 250.476Z" fill="#FFE6E9" stroke="white" stroke-width="8.5162" stroke-miterlimit="10"/>
<g clip-path="url(#clip0_1342_13332)">
<path fill-rule="evenodd" clip-rule="evenodd" d="M164.953 135.942C165.524 135.942 166.095 135.942 166.552 135.942C174.889 135.942 183.34 135.942 191.677 135.942C194.304 135.942 194.989 136.626 194.989 139.248C194.989 149.622 194.989 159.996 194.989 170.37C194.989 172.878 194.304 173.562 191.791 173.562C165.182 173.562 138.686 173.562 112.077 173.562C109.678 173.562 108.993 172.764 108.993 170.484C108.993 147.912 108.993 125.226 108.993 102.653C108.993 101.855 109.222 100.943 109.564 100.145C111.62 95.3572 113.79 90.6831 115.845 85.8951C116.074 85.3251 116.302 84.5271 116.302 83.8431C116.302 80.081 116.302 76.2049 116.302 72.4429C116.302 70.0489 117.102 69.2509 119.5 69.2509C131.263 69.2509 142.912 69.2509 154.675 69.2509C157.073 69.2509 157.758 70.0489 157.758 72.3289C157.758 76.2049 157.758 80.081 157.758 83.8431C157.758 84.5271 157.873 85.2111 158.215 85.7811C160.271 90.5691 162.441 95.3572 164.496 100.259C164.839 101.057 165.067 101.969 165.067 102.767C165.067 113.255 165.067 123.858 165.067 134.346C164.953 134.802 164.953 135.258 164.953 135.942ZM146.681 135.942C146.681 135.258 146.681 134.802 146.681 134.346C146.681 123.858 146.681 113.369 146.681 102.881C146.681 102.197 146.795 101.399 147.137 100.715C148.965 96.4972 150.906 92.2792 152.733 88.0611C152.848 87.7191 152.962 87.3771 153.19 86.9211C152.848 86.9211 152.733 86.8071 152.619 86.8071C142.227 86.8071 131.834 86.8071 121.441 86.8071C120.756 86.8071 120.528 87.1491 120.299 87.7191C118.244 92.3932 116.188 96.9532 114.247 101.627C114.018 102.197 113.79 102.995 113.79 103.679C113.79 124.998 113.79 146.202 113.79 167.52C113.79 167.976 113.79 168.318 113.79 168.888C122.926 168.888 131.948 168.888 141.085 168.888C141.085 168.432 141.085 168.09 141.085 167.634C141.085 164.442 141.085 161.136 141.085 157.944C141.085 156.348 141.656 155.436 143.026 154.866C144.282 154.41 144.967 153.498 145.424 152.244C146.338 149.622 145.31 147 142.798 145.86C141.541 145.29 140.97 144.492 141.085 143.124C141.085 141.642 141.085 140.16 141.085 138.792C141.085 137.082 141.998 136.17 143.711 136.056C144.625 135.828 145.538 135.942 146.681 135.942ZM190.192 140.844C175.46 140.844 160.842 140.844 145.653 140.844C146.11 141.528 146.338 141.984 146.795 142.326C151.934 146.316 151.934 154.296 146.795 158.286C146.452 158.514 146.11 159.198 146.11 159.654C145.995 162.39 146.11 165.126 146.11 167.862C146.11 168.204 146.224 168.432 146.224 168.774C160.956 168.774 175.574 168.774 190.192 168.774C190.192 159.426 190.192 150.192 190.192 140.844ZM149.079 135.828C152.733 135.828 156.274 135.828 159.928 135.828C159.928 135.372 159.928 134.916 159.928 134.46C159.928 124.2 159.928 113.939 159.928 103.679C159.928 102.881 159.814 102.083 159.471 101.399C157.987 97.9792 156.502 94.5592 155.017 91.1392C154.903 90.7971 154.675 90.5691 154.446 90.1131C154.218 90.5691 153.99 90.9111 153.875 91.2532C152.391 94.4452 150.906 97.6372 149.536 100.943C149.193 101.627 149.079 102.425 149.079 103.223C149.079 113.597 149.079 124.086 149.079 134.46C149.079 134.916 149.079 135.258 149.079 135.828ZM152.733 84.2991C152.733 80.879 152.733 77.573 152.733 74.2669C142.112 74.2669 131.606 74.2669 121.099 74.2669C121.099 77.687 121.099 80.993 121.099 84.2991C131.72 84.2991 142.227 84.2991 152.733 84.2991Z" fill="#EF4E58"/>
<path fill-rule="evenodd" clip-rule="evenodd" d="M129.892 147.57C126.923 147.456 124.41 146.886 122.126 145.29C118.929 143.01 118.7 139.704 121.327 136.74C121.555 136.398 121.784 135.942 121.784 135.486C121.898 134.688 121.784 133.89 121.784 132.978C121.898 131.496 122.012 130.014 120.413 129.102C120.185 128.988 120.071 128.76 120.071 128.532C118.472 124.542 117.786 120.552 120.642 116.789C120.87 116.447 121.098 116.105 121.441 115.877C121.784 115.649 122.355 115.535 122.583 115.649C122.926 115.877 123.268 116.333 123.268 116.675C123.382 117.359 123.268 118.157 123.268 118.956C123.382 120.894 124.639 121.464 126.466 121.35C128.864 121.122 131.263 121.236 133.661 121.35C135.031 121.464 136.173 121.122 136.516 119.754C136.744 118.956 136.63 117.929 136.744 117.131C136.859 116.561 137.201 116.105 137.43 115.535C138.001 115.763 138.8 115.877 138.914 116.333C139.714 118.271 140.742 120.21 141.084 122.262C141.427 124.542 140.742 127.05 139.257 128.874C138.115 130.356 137.886 131.61 137.886 133.206C137.886 133.548 137.886 134.004 137.886 134.346C137.772 135.486 138.001 136.398 138.914 137.31C140.856 139.476 140.627 142.212 138.572 144.264C136.288 146.886 133.09 147.456 129.892 147.57ZM121.098 121.692C120.87 122.718 120.756 123.744 121.555 124.77C121.898 125.112 121.898 125.796 121.898 126.252C121.784 127.164 122.126 127.848 123.04 128.19C123.839 128.418 124.068 128.988 124.068 129.786C124.068 132.066 124.068 134.346 124.068 136.626C124.068 137.082 123.839 137.652 123.382 137.994C121.098 140.046 121.213 142.212 123.953 143.58C127.951 145.746 132.176 145.632 136.059 143.238C138.343 141.87 138.343 139.818 136.402 137.994C135.945 137.652 135.602 136.854 135.602 136.284C135.488 134.118 135.602 131.838 135.602 129.672C135.602 128.874 135.831 128.304 136.744 127.962C137.658 127.62 138.001 127.05 137.886 126.024C137.886 125.454 138.001 124.884 138.343 124.428C139.028 123.402 138.914 122.376 138.572 121.122C138.229 121.464 138.115 121.692 137.886 121.92C136.516 123.288 135.145 123.744 133.09 123.63C130.92 123.516 128.636 123.402 126.352 123.63C125.667 123.63 124.753 123.858 124.182 123.516C123.154 123.288 122.24 122.376 121.098 121.692Z" fill="#EF4E58"/>
<path fill-rule="evenodd" clip-rule="evenodd" d="M158.786 149.736C158.9 145.29 161.984 141.756 165.867 141.756C170.321 141.642 173.975 145.632 173.633 150.306C173.29 154.068 171.006 157.146 167.694 157.83C163.697 158.628 159.928 156.006 159.129 151.788C158.9 151.104 158.9 150.42 158.786 149.736ZM171.234 149.85C171.234 149.508 171.234 149.052 171.12 148.71C170.778 146.658 169.636 145.062 167.58 144.378C165.638 143.808 164.04 144.378 162.669 145.86C161.07 147.684 160.842 150.648 161.984 152.814C163.24 155.208 165.981 156.12 168.151 154.98C170.321 153.84 171.12 152.016 171.234 149.85Z" fill="#EF4E58"/>
<path fill-rule="evenodd" clip-rule="evenodd" d="M177.63 159.426C177.63 156.12 180.028 153.498 182.997 153.498C185.967 153.498 188.479 156.234 188.479 159.426C188.479 162.618 186.081 165.24 183.112 165.24C180.028 165.354 177.63 162.846 177.63 159.426ZM180.028 159.426C180.028 161.364 181.399 162.96 183.112 162.96C184.825 162.96 186.081 161.478 186.081 159.54C186.081 157.602 184.711 156.006 182.997 156.006C181.399 156.006 180.028 157.488 180.028 159.426Z" fill="#EF4E58"/>
<path fill-rule="evenodd" clip-rule="evenodd" d="M161.299 160.566C161.299 163.188 159.472 165.126 157.073 165.126C154.675 165.126 152.962 163.188 152.848 160.68C152.848 158.172 154.675 156.006 157.073 156.006C159.357 155.892 161.299 157.944 161.299 160.566ZM158.786 160.452C158.786 159.312 157.873 158.286 156.959 158.286C156.045 158.286 155.246 159.312 155.246 160.452C155.246 161.706 156.045 162.618 157.073 162.618C158.101 162.504 158.786 161.592 158.786 160.452Z" fill="#EF4E58"/>
<path d="M36.8164 150.648C36.8164 150.648 48.0084 141.186 58.8578 153.612C58.7436 153.612 45.8385 161.82 36.8164 150.648Z" fill="#EF4E58"/>
<path d="M57.83 129.9C57.83 129.9 48.0084 140.73 59.8856 152.016C59.9998 152.016 68.6794 139.362 57.83 129.9Z" fill="#EF4E58"/>
<path d="M34.9892 127.506C34.9892 127.506 33.8471 143.352 51.7772 144.834C51.7772 144.948 50.6352 128.304 34.9892 127.506Z" fill="#EF4E58"/>
<path d="M45.0391 161.478C45.0391 161.478 56.8021 151.56 68.2225 164.556C68.2225 164.556 54.6322 173.22 45.0391 161.478Z" fill="#EF4E58"/>
<path d="M67.6515 138.45C67.6515 138.45 57.2589 149.85 69.9356 161.706C69.8214 161.82 78.9577 148.482 67.6515 138.45Z" fill="#EF4E58"/>
<path d="M53.833 172.422C53.833 172.422 65.9386 162.162 77.7017 175.614C77.7017 175.728 63.6546 184.506 53.833 172.422Z" fill="#EF4E58"/>
<path d="M78.5014 150.192C78.5014 150.192 67.4236 161.592 80.1002 174.246C80.1002 174.132 89.9218 160.794 78.5014 150.192Z" fill="#EF4E58"/>
<path d="M102.941 218.251C85.5815 174.474 53.6043 147.798 53.2617 147.57L53.7185 147C53.9469 147.228 86.1525 174.132 103.512 218.023L102.941 218.251Z" fill="#EF4E58"/>
<path d="M62.8555 112.913C62.8555 112.913 74.5043 106.757 81.5849 119.754C81.5849 119.754 68.6799 124.428 62.8555 112.913Z" fill="#EF4E58"/>
<path d="M85.354 98.7773C85.354 98.7773 74.6189 106.415 82.9558 118.614C82.9558 118.614 93.0057 109.151 85.354 98.7773Z" fill="#EF4E58"/>
<path d="M65.7102 92.2792C65.7102 92.2792 61.7131 105.959 77.1306 110.747C77.1306 110.747 79.3005 96.0412 65.7102 92.2792Z" fill="#EF4E58"/>
<path d="M67.9951 124.086C67.9951 124.086 80.3292 117.588 87.7524 131.268C87.8666 131.268 74.1621 136.17 67.9951 124.086Z" fill="#EF4E58"/>
<path d="M92.3201 108.239C92.3201 108.239 81.0139 116.219 89.8076 129.102C89.8076 129.102 100.429 119.184 92.3201 108.239Z" fill="#EF4E58"/>
<path d="M73.5908 135.372C73.5908 135.372 86.2675 128.646 94.0334 142.782C94.0334 142.782 79.9863 147.912 73.5908 135.372Z" fill="#EF4E58"/>
<path d="M99.6288 120.552C99.6288 120.552 87.7515 128.418 96.4311 141.984C96.4311 141.984 107.623 132.066 99.6288 120.552Z" fill="#EF4E58"/>
<path d="M107.966 185.076C101.114 143.352 78.1591 113.711 77.9307 113.369L78.3875 113.027C78.6159 113.369 101.685 143.124 108.537 185.076H107.966Z" fill="#EF4E58"/>
</g>
<defs>
<clipPath id="clip0_1342_13332">
<rect width="160" height="149" fill="white" transform="translate(34.9893 69.2509)"/>
</clipPath>
</defs>
</svg>
