<svg width="252" height="252" viewBox="0 0 252 252" fill="none" xmlns="http://www.w3.org/2000/svg">
<path d="M126 247C192.826 247 247 192.826 247 126C247 59.1735 192.826 5 126 5C59.1735 5 5 59.1735 5 126C5 192.826 59.1735 247 126 247Z" fill="#FFE6E9" stroke="white" stroke-width="8.5162" stroke-miterlimit="10"/>
<path d="M177 196H72V56H177V196ZM77.0055 191.1H171.994V61.0167H77.0055V191.1Z" fill="#EF4E58"/>
<path d="M124.5 99.7499C114.955 99.7499 107.155 91.9333 107.155 82.3666C107.155 72.7999 114.955 64.9833 124.5 64.9833C134.046 64.9833 141.845 72.7999 141.845 82.3666C141.845 92.0499 134.046 99.7499 124.5 99.7499ZM124.5 69.9999C117.632 69.9999 112.161 75.5999 112.161 82.3666C112.161 89.2499 117.748 94.7333 124.5 94.7333C131.368 94.7333 136.839 89.1333 136.839 82.3666C136.839 75.5999 131.368 69.9999 124.5 69.9999Z" fill="#EF4E58"/>
<path d="M109.483 110.017H86.5508V112.933H109.483V110.017Z" fill="#EF4E58"/>
<path d="M123.452 110.017H113.324V112.933H123.452V110.017Z" fill="#EF4E58"/>
<path d="M135.908 110.017H125.78V112.933H135.908V110.017Z" fill="#EF4E58"/>
<path d="M150.226 110.017H140.099V112.933H150.226V110.017Z" fill="#EF4E58"/>
<path d="M162.449 110.017H152.321V112.933H162.449V110.017Z" fill="#EF4E58"/>
<path d="M162.449 126H139.517V128.917H162.449V126Z" fill="#EF4E58"/>
<path d="M135.675 126H125.548V128.917H135.675V126Z" fill="#EF4E58"/>
<path d="M123.219 126H113.092V128.917H123.219V126Z" fill="#EF4E58"/>
<path d="M108.901 126H98.7734V128.917H108.901V126Z" fill="#EF4E58"/>
<path d="M96.6783 126H86.5508V128.917H96.6783V126Z" fill="#EF4E58"/>
<path d="M162.449 134.05H139.517V136.967H162.449V134.05Z" fill="#EF4E58"/>
<path d="M135.675 134.05H125.548V136.967H135.675V134.05Z" fill="#EF4E58"/>
<path d="M123.219 134.05H113.092V136.967H123.219V134.05Z" fill="#EF4E58"/>
<path d="M108.901 134.05H98.7734V136.967H108.901V134.05Z" fill="#EF4E58"/>
<path d="M96.6783 134.05H86.5508V136.967H96.6783V134.05Z" fill="#EF4E58"/>
<path d="M129.273 118.533H86.5508V121.45H129.273V118.533Z" fill="#EF4E58"/>
<path d="M123.452 118.533H113.324V121.45H123.452V118.533Z" fill="#EF4E58"/>
<path d="M135.908 118.533H125.78V121.45H135.908V118.533Z" fill="#EF4E58"/>
<path d="M150.226 118.533H140.099V121.45H150.226V118.533Z" fill="#EF4E58"/>
<path d="M162.449 118.533H152.321V121.45H162.449V118.533Z" fill="#EF4E58"/>
<path fill-rule="evenodd" clip-rule="evenodd" d="M109.134 147.7C110.531 148.75 111.928 149.45 113.674 149.683C114.372 149.8 115.071 149.917 115.653 150.033C115.769 150.033 116.002 150.033 116.002 149.917C117.049 148.4 118.563 147.817 120.309 147.583C123.685 147 127.061 146.767 130.436 147.117C131.95 147.233 133.347 147.7 134.86 147.933C135.908 148.167 136.955 148.283 137.887 148.4C138.585 148.4 139.167 148.283 139.982 148.167C139.749 147.7 139.516 147.35 139.4 147.117C138.818 145.95 138.934 144.9 140.098 144.2C141.612 143.15 143.241 142.217 144.871 141.283C145.802 140.817 146.85 141.167 147.432 142.1C149.76 146.067 151.972 150.15 154.3 154.117C155.697 156.567 156.977 159.017 158.258 161.35C158.374 161.583 158.491 161.933 158.607 162.167C158.84 162.983 158.724 163.567 158.142 164.033C157.676 164.383 157.21 164.733 156.628 165.083C155.581 165.783 154.533 166.367 153.485 166.95C152.205 167.65 151.157 167.417 150.342 166.133C150.109 165.783 149.877 165.433 149.644 164.967C149.527 165.083 149.411 165.2 149.294 165.2C148.247 166.133 147.316 166.95 146.268 167.883C146.035 168.117 146.035 168.233 146.151 168.467C146.966 171.15 145.569 173.367 142.776 173.717C142.31 173.717 142.077 173.95 141.961 174.417C141.612 176.05 140.215 177.217 138.585 177.333C138.236 177.333 138.003 177.567 137.887 177.917C137.887 178.033 137.77 178.15 137.77 178.267C137.304 180.017 136.024 180.95 134.278 181.067C133.579 181.067 133.23 181.417 132.765 181.883C131.368 183.633 129.622 184.217 127.41 183.983C125.896 183.867 124.5 183.517 123.103 183.05C122.288 182.817 121.822 182.817 121.24 183.517C120.192 184.8 118.33 185.033 116.933 184.217C116.235 183.75 115.653 183.167 115.303 182.467C115.071 182 114.838 181.883 114.372 182C113.208 182.117 112.16 181.883 111.345 180.95C110.88 180.483 110.531 179.783 110.181 179.2C110.065 178.967 109.949 178.85 109.716 178.85C107.737 179.083 105.642 177.333 105.409 175.117C105.409 174.65 105.176 174.533 104.71 174.417C101.8 173.6 100.869 170.333 102.382 168.35C102.615 168.117 102.498 167.883 102.382 167.65C101.684 166.833 101.102 166.133 100.403 165.317C99.9375 164.85 99.9375 164.85 99.5883 165.433C99.2391 165.9 99.0062 166.367 98.657 166.833C98.075 167.417 97.3765 167.65 96.5617 167.3C96.096 167.067 95.6304 166.833 95.2812 166.6C94.2335 166.017 93.3023 165.433 92.2546 164.733C91.9054 164.5 91.6725 164.267 91.3233 164.033C90.6249 163.45 90.5085 162.867 90.8577 162.05C91.4397 160.883 92.0218 159.6 92.6038 158.55C95.6304 153.067 98.7734 147.7 101.8 142.333C101.916 142.1 102.033 141.867 102.266 141.633C102.848 141.05 103.663 140.817 104.361 141.283C106.107 142.333 107.853 143.383 109.599 144.433C110.298 144.9 110.414 145.95 110.181 146.65C109.599 147 109.367 147.35 109.134 147.7ZM130.902 180.483C130.669 180.367 130.553 180.25 130.32 180.25C128.457 179.317 126.479 178.383 124.616 177.333C124.034 177.1 123.918 176.517 124.267 176.05C124.5 175.467 124.965 175.35 125.547 175.583C127.526 176.517 129.622 177.45 131.6 178.383C132.299 178.733 132.997 178.967 133.812 178.85C134.86 178.85 135.093 178.617 135.558 177.683C135.791 177.1 135.791 176.983 135.209 176.75C133.696 175.817 132.066 174.883 130.553 173.95C129.505 173.367 128.574 172.783 127.526 172.083C126.944 171.733 126.828 171.267 127.061 170.8C127.41 170.217 127.875 170.1 128.457 170.333C128.69 170.45 128.923 170.567 129.156 170.683C131.6 172.083 134.045 173.483 136.49 174.883C137.072 175.233 137.654 175.35 138.352 175.117C139.4 174.883 139.865 174.3 139.865 173.25C139.865 172.9 139.749 172.667 139.4 172.55C136.373 170.8 133.463 168.933 130.436 167.183C129.854 166.833 129.738 166.25 129.971 165.783C130.204 165.317 130.669 165.2 131.251 165.55C132.066 165.9 132.881 166.367 133.579 166.833C136.14 168.35 138.585 169.75 141.146 171.267C141.495 171.5 141.961 171.617 142.31 171.617C143.008 171.617 143.591 171.267 143.94 170.567C144.173 169.867 144.056 169.283 143.591 168.817C143.241 168.467 142.892 168.117 142.543 167.883C136.839 163.217 130.786 159.133 124.267 155.867C124.15 155.867 124.034 155.75 123.918 155.75C122.986 156.1 122.055 156.217 121.473 157.033C121.007 157.617 120.542 158.2 119.96 158.667C118.097 160.417 115.885 161.467 113.324 161.233C112.393 161.233 111.462 160.533 111.345 159.833C111.113 158.667 111.113 157.617 111.811 156.567C112.51 155.4 113.324 154.233 114.023 153.067C114.139 152.833 114.372 152.483 114.605 152.133C114.256 152.017 114.023 152.017 113.79 152.017C111.928 151.783 110.298 151.2 108.785 150.15C108.319 149.8 108.202 149.8 107.97 150.383C105.758 154.467 103.43 158.433 101.218 162.517C100.985 162.983 101.102 163.217 101.334 163.567C102.149 164.383 102.848 165.317 103.546 166.25C103.663 166.367 103.663 166.367 103.779 166.367C104.128 166.133 104.477 165.9 104.827 165.667C106.456 164.967 108.202 165.433 109.367 166.833C109.483 167.067 109.716 167.183 109.832 167.417C110.065 167.067 110.298 166.833 110.531 166.6C111.113 166.017 111.695 165.55 112.51 165.433C114.721 165.2 116.7 166.717 116.933 168.817C117.049 169.4 117.282 169.75 117.864 169.867C119.61 170.45 120.775 171.967 120.775 173.717C120.775 174.3 121.007 174.417 121.473 174.65C123.336 175.233 124.383 176.983 124.15 178.85C124.034 179.667 123.801 180.25 123.219 180.95C123.336 180.95 123.336 181.067 123.336 181.067C124.616 181.417 126.013 181.767 127.293 182C128.69 182.233 129.971 181.767 130.902 180.483ZM113.324 159.017C114.256 159.133 115.187 159.017 116.002 158.667C117.399 158.083 118.679 157.15 119.494 155.867C120.309 154.817 121.24 154.233 122.404 153.883C123.568 153.533 124.5 153.65 125.664 154.117C132.183 157.5 138.236 161.7 143.94 166.25C144.173 166.483 144.405 166.483 144.755 166.25C146.035 165.2 147.199 164.15 148.48 163.1C147.665 161.7 147.083 160.533 146.384 159.25C144.755 156.333 143.008 153.417 141.379 150.383C141.146 150.033 140.913 149.917 140.564 150.033C140.098 150.15 139.749 150.267 139.283 150.383C137.887 150.617 136.49 150.383 135.209 150.033C133.696 149.683 132.066 149.333 130.553 149.217C128.574 149.1 126.479 149.1 124.5 149.217C122.753 149.333 121.124 149.45 119.494 150.033C119.145 150.15 118.796 150.383 118.446 150.733C117.864 151.433 117.282 152.25 116.7 153.067C115.769 154.467 114.721 155.867 113.79 157.383C113.441 157.733 113.208 158.317 113.324 159.017ZM141.262 145.833C144.871 152.367 148.48 158.783 152.205 165.317C153.602 164.383 154.882 163.567 156.279 162.75C156.512 162.633 156.512 162.4 156.395 162.167C155.697 160.883 154.882 159.483 154.184 158.2C151.506 153.417 148.712 148.633 146.035 143.733C145.919 143.617 145.802 143.383 145.686 143.15C144.056 144.083 142.659 144.9 141.262 145.833ZM103.546 143.15C103.43 143.383 103.313 143.5 103.197 143.617C99.7047 149.8 96.2125 155.867 92.7202 162.05C92.4874 162.4 92.6038 162.517 92.8366 162.75C94.1171 163.567 95.3976 164.383 96.6781 165.083C96.6781 165.083 96.7945 165.083 96.7945 165.2C96.9109 165.083 97.0273 164.85 97.0273 164.733C99.0062 161.117 101.102 157.617 103.081 154C104.594 151.433 105.991 148.75 107.388 146.183C107.504 145.95 107.62 145.833 107.388 145.6C106.107 144.9 104.827 144.083 103.546 143.15ZM114.838 169.4C114.721 168.583 114.256 167.767 113.441 167.533C112.742 167.3 112.277 167.417 111.695 168.233C110.298 170.1 108.901 172.083 107.62 173.95C107.038 174.767 107.155 175.583 107.853 176.283C108.552 176.983 109.483 176.867 110.065 176.167C111.578 174.183 112.975 172.317 114.372 170.333C114.605 169.983 114.721 169.633 114.838 169.4ZM118.446 173.717C118.446 172.667 117.515 171.733 116.7 171.617C116.351 171.617 116.002 171.733 115.769 171.967C114.605 173.483 113.441 175 112.393 176.517C112.16 176.75 112.044 177.1 111.811 177.45C111.695 177.683 111.695 177.917 111.695 178.15C111.928 178.967 112.626 179.667 113.441 179.667C113.79 179.667 114.139 179.667 114.372 179.433C115.653 177.683 116.933 176.05 118.097 174.3C118.33 174.183 118.33 173.95 118.446 173.717ZM120.076 176.517C120.076 176.517 120.076 176.4 120.076 176.517C119.727 176.517 119.378 176.633 119.145 176.867C118.33 177.917 117.632 178.967 116.817 180.017C116.7 180.25 116.584 180.6 116.7 180.95C116.817 181.767 117.399 182.233 118.097 182.583C118.446 182.7 118.912 182.7 119.145 182.467C120.076 181.417 120.891 180.25 121.706 179.083C122.288 178.033 121.357 176.517 120.076 176.517ZM107.97 169.4C107.853 168.467 107.504 167.883 106.806 167.533C106.107 167.183 105.642 167.3 105.176 167.883C104.71 168.467 104.361 168.933 103.895 169.517C103.197 170.567 103.663 171.967 104.943 172.433C105.409 172.55 105.758 172.55 106.107 172.2C106.689 171.5 107.155 170.8 107.737 170.217C107.853 169.867 107.853 169.517 107.97 169.4Z" fill="#EF4E58"/>
</svg>
