<svg width="100" height="110" viewBox="0 0 100 110" fill="none" xmlns="http://www.w3.org/2000/svg">
<g clip-path="url(#clip0_1513_13603)">
<path d="M91.498 52.1897L91.7862 55.2676C91.9303 55.9367 92.0744 55.8028 92.2185 55.4014C92.3626 54.9999 92.5067 54.197 92.6508 53.5279L91.498 52.1897Z" fill="#EF4E58"/>
<path d="M89.6255 45.231C90.0578 46.0339 90.49 46.703 90.7782 47.5059C90.7782 48.8441 90.346 48.8441 90.0578 48.3089C89.9137 48.175 89.9137 48.0412 89.7696 47.9074C89.3373 45.7663 88.6168 43.759 87.8964 41.7517C88.3287 41.8855 89.0491 42.9561 88.905 42.0193C88.1846 40.1458 87.7523 40.6811 87.8964 41.484C86.7436 38.6738 85.1586 36.1313 83.2854 33.7225C84.0059 34.3916 84.5823 35.0607 85.1586 35.596C84.7264 35.0607 84.2941 34.3916 84.0059 33.7225C83.8618 33.5887 83.8618 33.321 83.7177 33.1872C83.5736 33.0534 83.4295 32.9196 83.2854 32.6519C82.9972 32.2505 82.8532 31.9828 82.565 31.5814C81.5563 30.1094 80.4036 28.7712 79.1068 27.2991C78.3863 26.63 77.6658 25.9609 76.9454 25.4257C76.6572 25.158 76.2249 24.7566 75.9367 24.4889C75.5045 24.2213 75.2163 23.9536 74.784 23.686C74.0635 23.1507 73.3431 22.7493 72.4785 22.3478C71.7581 22.0802 70.8935 21.8125 70.173 21.5449C69.7408 21.1434 69.3085 20.742 68.7321 20.4743C68.1558 20.2067 67.5794 19.939 67.003 19.6714C66.4266 19.4038 65.9944 19.2699 65.5621 19.0023C65.1298 18.7347 64.8416 18.6008 64.6975 18.3332C63.6889 17.9317 62.8243 17.6641 61.9598 17.2626C61.0952 16.995 60.2307 16.8612 59.5102 16.7274C58.6457 16.5935 57.9252 16.4597 57.2047 16.4597C56.4843 16.4597 55.7638 16.4597 55.0434 16.3259C52.1615 16.1921 49.4238 16.5935 45.5333 16.8612C44.9569 16.8612 44.8128 16.7274 44.8128 16.5935C43.9483 16.8612 43.0837 17.1288 42.0751 17.3965L41.3546 17.5303L40.7782 17.7979C40.346 17.9317 39.9137 18.0656 39.4814 18.1994C39.0491 18.3332 38.6168 18.467 38.1846 18.6008L37.6082 18.7347L37.0318 19.0023C36.3114 19.2699 35.4468 19.6714 34.5823 19.939C33.7177 20.2067 32.9973 20.6081 32.2768 21.0096C31.8445 21.1434 31.5563 21.4111 31.1241 21.5449L30.5477 21.8125L29.9713 22.0802C29.2509 22.4816 28.5304 23.0169 27.6658 23.4184C27.2336 23.686 26.9454 23.9536 26.5131 24.2213C26.2249 24.4889 25.7926 24.7566 25.3604 25.0242C24.9281 25.2918 24.6399 25.5595 24.2076 25.9609C23.7753 26.2286 23.4872 26.63 23.0549 26.8977C22.3344 27.433 21.7581 27.8344 21.4699 27.8344C22.3344 26.8977 21.3258 27.2991 22.0462 26.4962C21.1817 27.5668 21.3258 27.8344 21.4699 28.1021C21.4699 28.5035 21.4699 28.905 20.173 30.2432L19.4526 28.905C19.4526 29.9755 18.588 30.7785 17.7235 31.7152C17.2912 32.2505 16.7148 32.6519 16.2826 33.1872C15.8503 33.7225 15.5621 34.3916 15.418 35.0607C14.8416 35.3283 14.8416 35.0607 14.9857 34.3916C15.1298 34.124 15.2739 33.7225 15.418 33.321C15.5621 32.9196 15.9944 32.5181 16.2826 32.1167C15.8503 32.5181 15.5621 32.9196 15.418 33.321C15.2739 33.7225 15.1298 33.9901 15.1298 34.2578C14.9857 34.7931 14.8416 35.4622 14.2653 36.1313C14.2653 35.4622 14.1212 34.6592 14.1212 33.9901C14.1212 35.1945 13.5448 35.8636 12.9684 36.5327C12.3921 37.2018 11.6716 37.6033 11.2393 38.0047C11.3834 38.54 12.6803 37.8709 11.5275 40.1458C10.9511 41.0826 10.9511 40.5473 10.663 40.6811C10.9511 40.9488 11.0952 42.0193 10.5189 43.4913C9.9425 43.6252 10.3748 42.287 9.9425 42.0193C9.51022 43.2237 9.36613 44.2943 8.78976 45.0972C8.50158 47.3721 9.36613 45.0972 9.51022 46.5692C9.22204 47.3721 9.07794 47.7736 8.78976 48.0412C8.64567 48.175 8.35748 48.175 8.21339 48.0412C7.78111 47.7736 7.34884 47.2383 6.77247 47.7736C6.77247 47.3721 6.77247 47.1045 6.77247 46.703C6.77247 46.3016 6.91656 46.0339 6.91656 45.6325C6.91656 44.8295 7.06065 44.1604 7.20475 43.3575C7.34884 42.6884 7.49293 42.0193 7.63702 41.3502C7.78111 40.8149 7.92521 40.2797 7.92521 39.8782L7.06065 42.4208L6.48428 45.0972C6.34019 44.8295 5.90792 45.7663 5.47564 46.3016C5.33155 46.703 5.33155 46.8368 5.18745 46.8368C5.04336 46.8368 5.04336 46.4354 5.04336 45.7663C4.75518 46.4354 4.61109 47.1045 4.46699 47.7736C4.3229 48.4427 4.17881 49.2456 4.03472 49.9147C3.89062 50.5838 3.89062 51.3867 3.89062 52.1896C3.89062 52.9926 3.89062 53.6617 3.89062 54.4646C3.89062 55.2675 4.03472 55.9366 4.03472 56.7395C4.17881 57.4086 4.3229 58.0777 4.3229 58.8806C4.3229 59.5497 4.61109 60.3527 4.75518 61.0218C4.89927 61.6909 5.04336 62.36 5.18745 63.0291C5.18745 62.2261 5.18745 61.2894 5.47564 61.4232C6.1961 63.9658 5.47564 63.832 5.33155 64.3673C6.1961 66.2407 6.91656 65.8393 7.92521 66.776C7.92521 67.0437 7.92521 67.3113 7.92521 67.4451C7.92521 67.7128 8.0693 67.8466 8.0693 68.1142C8.21339 68.5157 8.21339 68.9171 8.35748 69.1848C8.50158 69.8539 8.64567 70.3892 8.78976 70.9244C8.93385 71.4597 9.07794 71.995 9.22204 72.5303C9.36613 73.0656 9.51022 73.7347 9.65431 74.6714L10.3748 74.1361C10.663 75.3405 11.0952 75.8758 11.6716 76.4111C12.248 76.9463 12.8243 77.4816 13.2566 78.686C13.1125 78.9536 12.3921 78.1507 11.8157 77.6154C12.248 78.0169 12.3921 78.4184 12.5362 78.8198C12.9684 78.9536 12.9684 79.2213 13.1125 79.4889C13.2566 80.0242 13.5448 80.5595 14.4094 81.3624L12.5362 80.4257C13.1125 81.2286 13.9771 82.0315 14.4094 82.7006C14.9857 83.3697 15.1298 83.7712 14.5534 83.6373C15.2739 84.0388 16.1385 84.7079 17.003 85.377C17.4353 85.7784 17.8676 86.0461 18.2998 86.4475C18.7321 86.849 19.1644 87.1167 19.7408 87.5181C20.173 87.9196 20.6053 88.321 21.1817 88.5887C21.7581 88.8563 22.1903 89.2578 22.7667 89.5254C23.199 89.7931 23.7753 90.1945 24.2076 90.4621C24.6399 90.7298 25.2163 90.9974 25.6485 91.1312L25.0722 91.5327C25.6485 91.6665 26.369 91.9342 27.2336 92.3356C27.6658 92.4694 28.0981 92.7371 28.5304 93.0047C28.9627 93.1385 29.3949 93.4062 29.8272 93.6738C30.6918 94.0753 31.5563 94.4768 32.4209 94.7444C33.2854 95.012 34.0059 95.012 34.5823 95.012L34.7264 95.4135C35.4468 95.5473 36.1673 95.5473 36.8877 95.6811H39.0491C40.9223 96.2164 40.0578 97.1531 40.2019 96.8855C41.2105 97.1531 42.2192 97.1531 43.2278 97.287C44.2364 97.4208 45.101 97.5546 45.9655 97.5546C46.8301 97.5546 47.6947 97.6884 48.4151 97.6884C49.1356 97.8222 49.856 97.8222 50.5765 97.9561C50.8647 97.4208 52.1615 97.1531 53.7465 96.8855C54.6111 96.7517 55.4756 96.484 56.3402 96.3502C57.2047 96.0826 58.2134 96.0826 58.9339 95.8149C63.1125 95.1458 67.1471 93.6738 71.0376 91.6665C74.784 89.6592 78.2422 86.9828 81.124 83.905C81.8445 83.1021 82.565 82.2991 83.1413 81.63C83.7177 80.8271 84.2941 80.0242 84.8705 79.0875C85.4468 78.2845 86.0232 77.3478 86.4555 76.5449C86.8877 75.6081 87.4641 74.8052 87.8964 73.8685C88.3287 72.9317 88.6168 72.1288 89.0491 71.1921C89.3373 70.2553 89.6255 69.3186 89.9137 68.5157C90.0578 68.1142 90.2019 67.5789 90.346 67.1775C90.49 66.776 90.49 66.2407 90.6341 65.8393C90.7782 64.9025 91.0664 64.0996 91.0664 63.1629C91.2105 62.0923 91.2105 60.7541 91.0664 59.4159C90.9223 58.8806 90.7782 58.2115 90.6341 57.5424C90.6341 56.8733 90.6341 56.0704 90.6341 55.4013C90.6341 53.1264 90.346 50.8514 90.0578 48.7103C90.2019 48.8441 90.346 48.978 90.49 48.8441C90.7782 48.7103 91.2105 48.175 91.4987 48.4427C91.2105 47.9074 90.9223 47.3721 90.6341 46.8368L89.6255 45.231ZM42.9396 91.6665C43.0837 91.6665 43.0837 91.6665 43.2278 91.6665V91.8003C43.0837 91.8003 42.9396 91.8003 42.9396 91.6665Z" fill="#EF4E58"/>
<path d="M11.9605 78.5522C11.6723 77.8831 11.3841 77.214 11.6723 77.214C11.0959 76.6787 10.8077 76.6787 11.9605 78.5522Z" fill="#EF4E58"/>
<path d="M11.6719 77.2141C11.816 77.3479 11.9601 77.4818 11.9601 77.6156C11.9601 77.3479 11.816 77.3479 11.6719 77.2141Z" fill="#EF4E58"/>
<path d="M45.39 16.192L46.1105 16.0582L47.6955 15.9243L49.2805 15.7905C49.8569 15.7905 50.2892 15.7905 50.8655 15.7905C49.5687 15.5229 48.2719 15.5229 46.975 15.5229C47.4073 15.3891 47.9837 15.3891 48.5601 15.2552C48.8482 15.2552 49.2805 15.1214 49.5687 15.1214C49.8569 15.1214 50.2892 15.1214 50.5773 15.1214C51.8742 15.1214 53.0269 14.9876 53.3151 14.72C50.4332 14.9876 46.6869 14.9876 43.2286 15.6567C42.3641 15.7905 41.4995 15.9244 40.635 16.192C39.7704 16.4596 39.05 16.5934 38.1854 16.8611C37.7531 16.9949 37.465 17.1287 37.0327 17.2625C36.7445 17.3964 36.3122 17.5302 36.024 17.7978C35.3036 18.0655 34.7272 18.4669 34.2949 18.7346C34.8713 18.6007 35.4477 18.4669 36.024 18.1993C36.6004 18.0655 37.1768 17.7978 37.8972 17.664C38.4736 17.5302 39.1941 17.2625 39.9145 17.1287C40.635 16.9949 41.2113 16.7273 41.9318 16.7273C43.0845 16.8611 44.6696 16.7273 44.9577 17.1287C44.9577 16.9949 44.9577 16.8611 44.8137 16.7273L45.39 16.192Z" fill="#EF4E58"/>
<path d="M53.8907 13.7834C54.323 13.7834 54.7553 13.9172 55.3317 14.051L54.7553 13.1143C54.0348 13.1143 53.4585 13.1143 52.738 13.2481L50.7207 13.3819C51.4412 13.6495 52.1616 13.7834 52.738 13.7834C53.1703 13.7834 53.4585 13.7834 53.8907 13.7834Z" fill="#EF4E58"/>
<path d="M53.8904 15.5229C53.6022 15.5229 53.314 15.5229 53.1699 15.5229C53.6022 15.6568 53.8904 15.7906 54.3227 15.9244H56.3399L54.7549 15.7906L53.8904 15.5229Z" fill="#EF4E58"/>
<path d="M14.2654 32.5182L14.6977 31.8491L15.7063 30.3771C16.2827 29.3066 17.0031 28.5036 17.8677 27.5669L16.715 29.0389C16.2827 29.5742 15.9945 30.1095 15.5622 30.5109C14.8418 31.5815 14.1213 32.5182 13.5449 33.7226L13.8331 33.3212L14.2654 32.5182Z" fill="#EF4E58"/>
<path d="M9.22266 76.4111L11.384 79.2214L11.2399 78.6861C10.5195 78.1508 9.94312 77.0802 9.22266 76.4111Z" fill="#EF4E58"/>
<path d="M39.3383 99.1604C37.1769 98.8927 38.906 99.8295 38.1855 99.9633C39.9147 99.1604 40.9233 100.632 39.3383 99.1604Z" fill="#EF4E58"/>
<path d="M44.0918 99.5619C44.9564 99.9634 45.3886 99.9634 45.6768 99.8295C45.965 99.6957 46.2532 99.5619 46.8295 99.4281C45.5327 99.2943 44.8123 99.5619 44.0918 99.5619Z" fill="#EF4E58"/>
<path d="M49.4244 31.3137C51.5858 31.3137 53.459 31.9828 54.7558 33.4548C56.0527 34.793 56.7731 36.6665 56.7731 39.0753C56.7731 41.3502 56.0527 43.0899 54.7558 44.5619C53.459 45.9001 51.7299 46.5692 49.4244 46.5692C46.8308 46.5692 44.8135 45.7663 43.5167 44.0266C42.3639 42.6884 41.9316 40.9488 41.9316 38.9415C41.9316 36.3989 42.7962 34.3916 44.5253 33.0534C45.678 31.9828 47.4071 31.4475 49.4244 31.3137ZM49.2803 49.1118C51.4417 49.1118 53.0267 49.9147 54.1795 51.6543C55.1881 53.394 55.7645 55.9366 55.7645 59.5497C55.7645 66.3745 54.7558 73.3332 52.8826 80.4256C52.0181 83.5035 50.8654 85.1093 49.2803 85.1093C47.8394 85.1093 46.6867 83.7711 45.678 80.9609C43.5167 75.0728 42.508 68.1142 42.508 60.085C42.508 55.669 43.2285 52.7249 44.6694 50.9853C45.5339 49.7809 47.2631 49.1118 49.2803 49.1118Z" fill="white"/>
<path d="M2.88281 20.2067L4.03555 19.27L12.6811 21.0096L11.0961 12.9804L12.2488 12.0437L21.6148 21.0096L20.4621 21.9464L12.8252 14.7201L14.2661 22.7493L5.76466 21.0096L13.2575 28.2359L12.2488 29.1727L2.88281 20.2067Z" fill="#2B2523"/>
<path d="M19.3086 7.76139L20.6054 7.09229L27.2337 17.9317L25.9368 18.6008L19.3086 7.76139Z" fill="#2B2523"/>
<path d="M30.4035 14.1848L30.9799 12.9804C32.709 13.7833 34.1499 13.9171 35.879 13.3818C37.6081 12.8466 38.4726 11.776 38.0404 10.5716C37.6081 9.50106 36.8876 8.96578 34.0058 9.23342C30.8358 9.50106 29.2507 8.96578 28.5303 6.95848C27.9539 5.085 29.2507 3.21152 31.7003 2.54242C33.5735 2.00714 35.0144 2.14096 36.7435 2.67624L36.3113 4.01444C34.8703 3.47916 33.4294 3.34534 32.1326 3.7468C30.4035 4.28208 29.683 5.35264 29.9712 6.4232C30.4035 7.49376 31.268 8.02904 34.294 7.7614C37.3199 7.49376 39.049 8.16286 39.6254 9.90252C40.3458 12.0436 38.9049 13.9171 36.3113 14.5862C34.294 15.2553 32.4208 15.1215 30.4035 14.1848Z" fill="#2B2523"/>
<path d="M43.6602 10.9732L44.6688 9.90261C46.1097 11.107 47.4066 11.6423 49.2798 11.6423C51.153 11.6423 52.3057 10.7055 52.1616 9.50115C52.1616 8.29678 51.4411 7.7615 48.5593 7.22622C45.3893 6.69094 43.9483 5.7542 43.9483 3.7469C43.9483 1.7396 45.6774 0.267578 48.2711 0.267578C50.2884 0.267578 51.5852 0.669038 53.0261 1.7396L52.1616 2.81016C50.8648 1.87342 49.5679 1.47196 48.2711 1.47196C46.542 1.47196 45.3893 2.4087 45.3893 3.47926C45.3893 4.68364 46.1097 5.35274 49.1357 5.88802C52.1616 6.4233 53.6025 7.49386 53.6025 9.36733C53.6025 11.5085 51.7293 12.9805 49.1357 12.9805C47.1184 12.8467 45.3893 12.1776 43.6602 10.9732Z" fill="#2B2523"/>
<path d="M60.8085 1.07056L62.2494 1.3382L59.6558 13.6496L58.2148 13.382L60.8085 1.07056Z" fill="#2B2523"/>
<path d="M67.004 8.56444C68.589 5.48658 72.4795 3.88074 76.2259 5.48658C79.9723 7.09242 80.9809 10.9732 79.3959 14.0511C77.8109 17.1289 73.9204 18.7348 70.174 17.1289C66.5717 15.5231 65.419 11.7761 67.004 8.56444ZM77.955 13.5158C79.2518 10.9732 78.3873 7.89534 75.6495 6.69096C72.9118 5.48658 69.8858 6.69096 68.589 9.23354C67.2922 11.7761 68.1567 14.7202 70.8945 16.0584C73.6322 17.2627 76.6582 16.0584 77.955 13.5158Z" fill="#2B2523"/>
<path d="M89.3378 13.3818L90.3464 14.3186L88.6173 26.8976L96.2542 19.939L97.2628 20.8758L87.6087 29.574L86.7441 28.7711L88.6173 15.7906L80.6922 22.8831L79.6836 21.9463L89.3378 13.3818Z" fill="#2B2523"/>
<path d="M5.90778 79.7567L4.61095 77.6156L5.33141 77.2141L8.35735 82.0316L7.63689 82.4331L6.34006 80.292L0.432277 83.5037L0 82.9684L5.90778 79.7567Z" fill="#747173"/>
<path d="M4.17855 84.3065C5.47538 83.3697 7.34858 83.6374 8.35722 84.8417C9.36587 86.1799 9.07769 87.7858 7.78086 88.7225C6.48403 89.6592 4.61083 89.3916 3.60218 88.1872C2.44944 86.9828 2.88172 85.2432 4.17855 84.3065ZM7.06039 88.1872C8.06904 87.5181 8.35722 86.3137 7.63676 85.377C6.9163 84.4403 5.61947 84.3065 4.61083 84.9755C3.60218 85.6446 3.314 86.849 4.03446 87.7858C4.89901 88.7225 6.19584 88.8563 7.06039 88.1872Z" fill="#747173"/>
<path d="M6.05273 92.4697L6.7732 92.3358C6.91729 93.1388 7.20547 93.674 7.78184 94.2093C8.64639 95.0122 9.65504 95.1461 10.6637 94.3431L11.096 93.9417C10.2314 94.0755 9.36686 93.9417 8.64639 93.2726C7.63775 92.3358 7.49366 90.8638 8.64639 89.7933C9.79913 88.7227 11.5282 88.9903 12.3928 89.7933C13.1133 90.4624 13.2573 91.2653 13.1133 92.0682L13.8337 91.3991L14.4101 91.9344L11.096 95.0122C10.5196 95.5475 9.79913 95.8152 9.07867 95.8152C8.35821 95.8152 7.63775 95.4137 7.06138 94.8784C6.6291 94.0755 6.19683 93.2726 6.05273 92.4697ZM12.2487 93.0049C13.1133 92.202 12.9692 91.1315 12.2487 90.3285C11.5282 89.6594 10.3755 89.5256 9.51095 90.1947C8.64639 90.9976 8.64639 92.0682 9.36686 92.7373C10.0873 93.5402 11.3841 93.674 12.2487 93.0049Z" fill="#747173"/>
<path d="M13.9761 94.7446C14.9847 93.5402 16.7138 93.2725 18.0106 94.2093C19.3075 95.146 19.3075 96.7519 18.1547 97.9562C18.1547 98.0901 18.0106 98.0901 18.0106 98.0901L14.4083 95.5475C13.6879 96.4842 13.9761 97.5548 14.8406 98.0901C15.417 98.4915 16.1374 98.6253 16.7138 98.4915L16.8579 99.1606C15.9933 99.2944 15.2729 99.1606 14.4083 98.6253C13.1115 97.6886 12.8233 96.0828 13.9761 94.7446ZM17.7225 97.1533C18.2988 96.3504 18.4429 95.4137 17.5784 94.7446C16.8579 94.2093 15.7052 94.3431 14.9847 95.146L17.7225 97.1533Z" fill="#747173"/>
<path d="M19.0206 99.9634L20.8938 97.287L20.1733 96.8856L20.6056 96.3503L21.326 96.7518L22.1906 95.4136L22.9111 95.815L22.0465 97.1532L23.6315 98.09L23.1992 98.6252L21.6142 97.6885L19.8851 100.231C19.4528 100.766 19.741 101.168 20.1733 101.435C20.4615 101.569 20.6056 101.703 21.0379 101.703L20.6056 102.238C20.3174 102.238 19.8851 102.105 19.5969 101.971C18.7324 101.569 18.4442 100.766 19.0206 99.9634Z" fill="#747173"/>
<path d="M25.7922 96.7517L26.5127 97.1532L25.0717 99.9634C25.6481 99.5619 26.3686 99.4281 27.3772 99.8296C28.674 100.365 28.9622 101.435 28.3859 102.64L26.8008 105.584L25.9363 105.049L27.3772 102.238C27.8095 101.302 27.6654 100.632 26.8008 100.097C25.9363 99.6957 24.9276 99.9634 24.4954 100.9L23.0544 103.577L22.334 103.175L25.7922 96.7517Z" fill="#747173"/>
<path d="M29.5389 103.71C30.1153 102.238 31.5562 101.436 33.1413 101.971C34.7263 102.506 35.1585 103.978 34.7263 105.45C34.7263 105.584 34.7263 105.584 34.5822 105.718L30.2594 104.38C29.9712 105.45 30.5476 106.387 31.5562 106.655C32.2767 106.922 32.8531 106.788 33.5735 106.521L33.8617 107.056C33.1413 107.457 32.2767 107.591 31.2681 107.324C29.683 106.655 28.9626 105.183 29.5389 103.71ZM33.8617 104.781C34.1499 103.844 33.8617 102.908 32.8531 102.506C31.8444 102.238 30.9799 102.64 30.4035 103.577L33.8617 104.781Z" fill="#747173"/>
<path d="M36.8867 103.042L37.7512 103.175L37.463 104.514C38.0394 103.711 39.0481 103.309 40.0567 103.577L39.9126 104.38C38.7599 104.112 37.463 104.647 37.1749 106.253L36.4544 108.394L35.5898 108.26L36.8867 103.042Z" fill="#747173"/>
<path d="M43.6602 102.64H45.9656L47.2625 106.788L48.8475 102.64H50.7207L52.1616 106.788L53.6025 102.64H55.7639L53.0262 109.732H51.153L49.712 105.584L48.127 109.732H46.2538L43.6602 102.64Z" fill="#747173"/>
<path d="M55.7637 102.506L61.8155 101.436L62.1037 103.041L58.0691 103.71L58.2132 104.781L61.8155 104.112L62.1037 105.584L58.5014 106.253L58.7896 107.324L62.8242 106.655L63.1124 108.26L56.9164 109.331L55.7637 102.506Z" fill="#747173"/>
<path d="M65.8496 100.365L68.5874 99.4282C70.1724 98.8929 71.6133 99.2944 72.1897 100.499C72.766 101.971 71.9015 103.175 70.3165 103.71L68.5874 104.38L69.596 106.654L68.7315 106.922L65.8496 100.365ZM70.0283 103.041C71.181 102.64 71.7574 101.703 71.3251 100.9C70.8928 99.9635 69.8842 99.6958 68.7315 100.231L66.8583 100.9L68.1551 103.844L70.0283 103.041Z" fill="#747173"/>
<path d="M73.1992 99.4283L73.9197 99.0269L74.6401 100.231C74.496 99.2945 74.9283 98.3578 75.937 97.9563L76.3692 98.7592C75.2165 99.2945 74.7842 100.499 75.6488 101.837L76.6574 103.711L75.937 104.112L73.1992 99.4283Z" fill="#747173"/>
<path d="M78.0975 100.097C77.2329 98.8929 77.377 97.1533 78.8179 96.2165C80.2588 95.2798 81.988 95.6812 82.8525 96.8856C83.7171 98.09 83.4289 99.8297 82.132 100.766C80.6911 101.703 78.962 101.302 78.0975 100.097ZM82.2761 97.4209C81.5557 96.4842 80.2588 96.2165 79.2502 96.7518C78.2416 97.4209 78.0975 98.6253 78.8179 99.562C79.5384 100.499 80.8352 100.766 81.8439 100.097C82.7084 99.562 82.9966 98.3577 82.2761 97.4209Z" fill="#747173"/>
<path d="M85.3026 97.6886L85.1585 97.0195C85.8789 97.0195 86.5994 96.7518 87.1758 96.3504C87.7521 95.9489 87.8962 95.4136 87.464 95.0122C87.0317 94.6107 86.4553 94.8783 85.7348 95.146C84.8703 95.5474 84.0057 95.9489 83.2853 95.146C82.7089 94.4769 82.853 93.5401 83.7176 92.871C84.2939 92.4696 85.0144 92.2019 85.7348 92.0681L85.8789 92.7372C85.3026 92.871 84.7262 93.0049 84.2939 93.4063C83.5735 93.674 83.5735 94.2092 83.8616 94.4769C84.1498 94.8783 84.8703 94.6107 85.5908 94.2092C86.4553 93.8078 87.3199 93.5401 88.0403 94.2092C88.7608 95.0122 88.4726 95.9489 87.608 96.618C87.0317 97.2871 86.1671 97.6886 85.3026 97.6886Z" fill="#747173"/>
<path d="M86.4551 90.5961L87.0314 90.0608L87.896 90.7299C87.7519 89.927 87.7519 89.1241 88.4724 88.455C89.3369 87.5182 91.066 87.2506 92.507 88.455C93.9479 89.6593 93.8038 91.2652 92.9392 92.2019C92.2188 92.871 91.3542 93.0048 90.6338 93.0048L92.7951 94.7445L92.2188 95.2798L86.4551 90.5961ZM91.7865 88.9902C90.7778 88.1873 89.481 88.1873 88.7606 88.9902C88.0401 89.6593 88.0401 90.9975 89.0487 91.8005C90.0574 92.6034 91.3542 92.4696 92.0747 91.8005C92.7951 90.9975 92.7951 89.7932 91.7865 88.9902Z" fill="#747173"/>
<path d="M93.2268 87.3844C91.7858 86.4476 91.3536 84.9756 92.3622 83.7712C93.3709 82.433 94.9559 82.433 96.3968 83.3697C96.5409 83.3697 96.5409 83.5036 96.685 83.5036L94.0913 86.9829C95.2441 87.5182 96.2527 87.2505 96.8291 86.4476C97.2613 85.9123 97.2614 85.2432 97.1173 84.7079L97.8377 84.5741C97.9818 85.377 97.9818 86.0462 97.4054 86.9829C96.3968 87.9196 94.6677 88.1873 93.2268 87.3844ZM95.5322 83.6374C94.6677 83.1021 93.5149 83.1021 92.9386 84.0388C92.3622 84.8418 92.6504 85.7785 93.515 86.4476L95.5322 83.6374Z" fill="#747173"/>
<path d="M94.668 80.5597L95.1002 79.8906L96.3971 80.5597C95.8207 79.7567 95.5325 78.82 96.1089 78.0171L96.9735 78.4185C96.3971 79.4891 96.6853 80.6935 98.1262 81.3626L100.143 82.4331L99.7112 83.1022L94.668 80.5597Z" fill="#747173"/>
</g>
<defs>
<clipPath id="clip0_1513_13603">
<rect width="100" height="110" fill="white"/>
</clipPath>
</defs>
</svg>
