<svg width="180" height="90" viewBox="0 0 180 90" fill="none" xmlns="http://www.w3.org/2000/svg">
<g clip-path="url(#clip0_1419_13544)">
<path d="M0 36.3982L25.0917 43.5072L25.2162 42.7252L0.124524 35.6873L0 36.3982Z" fill="#EF4E58"/>
<path d="M15.5654 0.35545L27.6443 26.4455L28.2047 26.019L16.1258 0L15.5654 0.35545Z" fill="#EF4E58"/>
<path d="M43.0228 1.56396L37.2324 18.9099L37.855 19.1943L43.6454 1.84832L43.0228 1.56396Z" fill="#EF4E58"/>
<path d="M6.35034 11.3744C6.35034 11.3744 27.395 12.9384 26.212 39.9526C26.212 39.9526 4.66926 34.9052 6.35034 11.3744Z" fill="#EF4E58"/>
<path d="M31.0063 1.2085C31.0063 1.2085 21.1066 11.4455 31.0063 24.3128C31.0063 24.3839 39.9098 12.1564 31.0063 1.2085Z" fill="#EF4E58"/>
<path d="M55.5383 7.39333C55.5383 7.39333 45.016 4.26537 41.7783 17.7014C41.7783 17.7014 53.0478 19.1943 55.5383 7.39333Z" fill="#EF4E58"/>
<path fill-rule="evenodd" clip-rule="evenodd" d="M63.6941 39.7394C62.6356 38.8152 61.6394 37.891 60.581 37.038C59.7716 36.3271 59.5225 35.4029 59.5225 34.2654C59.4602 32.7015 59.2735 31.0664 59.0867 29.5024C59.0244 29.0048 59.2735 28.5782 59.0867 28.1517C56.0358 20.8294 47.3191 18.6256 40.9061 20.5451C37.1081 21.6825 33.5592 24.5972 31.5668 28.5071C30.4461 30.7109 29.8234 33.2702 29.5744 35.9005C29.1385 36.1849 28.7027 36.5403 28.2669 36.9669C27.831 39.7394 28.5159 42.4408 29.6989 44.8579C36.1742 47.1327 45.7003 52.4645 50.5567 65.2607C50.5567 64.4787 50.619 63.7678 50.7435 62.8436C51.1794 57.8673 54.5415 55.0948 58.8376 54.3128C59.9583 54.0996 61.0791 53.8863 62.0752 53.4598C63.7563 52.6778 64.0676 51.6114 63.3828 49.692C63.2582 49.4076 63.196 48.7678 63.3205 48.6967C64.3789 47.6304 64.1299 46.7773 63.0092 45.9242C65.3751 44.6446 63.1337 43.7204 62.9469 42.6541C63.2582 42.3697 63.5695 42.0143 63.8186 41.7299C64.7525 40.8057 64.7525 40.6635 63.6941 39.7394Z" fill="#EF4E58"/>
<path d="M21.6052 45.9952C21.6052 45.9952 53.9192 48.4123 52.1759 90C52.1759 90 19.0524 82.1801 21.6052 45.9952Z" fill="#EF4E58"/>
<path d="M63.0713 87.9383L68.6749 57.7961H75.4615L73.4068 68.744H82.5594L84.614 57.7961H91.4006L85.797 87.9383H79.0104L81.3764 75.2132H72.2238L69.8579 87.9383H63.0713Z" fill="#EF4E58"/>
<path d="M101.238 85.5924C100.366 86.5166 99.4319 87.2275 98.4357 87.7251C97.4396 88.2227 96.3188 88.436 95.1981 88.436C93.4548 88.436 92.0227 87.7962 90.902 86.6588C89.8436 85.4502 89.2832 83.8151 89.2832 81.8246C89.2832 79.6208 89.9058 77.9147 91.0888 76.7061C92.2718 75.4976 94.2019 74.7156 96.6924 74.3602C97.1905 74.2891 97.9376 74.218 98.8716 74.1469C101.549 73.8625 102.856 73.0806 102.856 71.7298C102.856 71.1611 102.67 70.6635 102.171 70.237C101.736 69.8815 101.175 69.6682 100.49 69.6682C99.681 69.6682 98.9961 69.8104 98.5603 70.1659C98.0622 70.5213 97.7509 71.09 97.5641 71.8009H91.5246C92.0227 69.455 93.0189 67.7488 94.5132 66.6114C96.0698 65.4739 98.1244 64.8341 100.677 64.8341C103.292 64.8341 105.347 65.4739 106.779 66.6825C108.273 67.891 108.958 69.6682 108.958 71.8009C108.958 72.2275 108.958 72.654 108.896 72.9384C108.896 73.2938 108.834 73.5782 108.771 73.8625L106.966 84.0995C106.903 84.3128 106.903 84.5261 106.903 84.8104C106.903 85.0237 106.903 85.308 106.903 85.5924C106.903 85.9479 106.966 86.3033 107.028 86.5166C107.09 86.7298 107.215 87.0142 107.401 87.1564V87.8673H101.175V85.5924H101.238ZM102.109 77.346C101.424 77.6303 100.428 77.9147 99.1206 78.199C96.8169 78.6967 95.6339 79.6919 95.6339 81.2559C95.6339 81.9668 95.8207 82.5355 96.2566 82.9621C96.6924 83.3886 97.2528 83.6019 97.8754 83.6019C99.1206 83.6019 100.055 83.1753 100.677 82.2512C101.238 81.3981 101.736 79.763 102.109 77.346Z" fill="#EF4E58"/>
<path d="M134.362 57.7962L128.758 87.9384H122.719L123.279 85.0237C122.532 86.2322 121.598 87.1564 120.602 87.7251C119.606 88.365 118.423 88.6493 117.24 88.6493C115.123 88.6493 113.442 87.8673 112.259 86.2323C111.076 84.5972 110.453 82.3223 110.453 79.4076C110.453 75.2133 111.387 71.7299 113.255 68.9574C115.123 66.1849 117.489 64.8341 120.291 64.8341C121.598 64.8341 122.719 65.1896 123.653 65.9716C124.587 66.7536 125.334 67.8199 125.832 69.3128L128.011 57.6541H134.362V57.7962ZM119.855 83.0332C121.224 83.0332 122.345 82.2512 123.279 80.7583C124.213 79.1943 124.649 77.346 124.649 75.1422C124.649 73.8626 124.4 72.7962 123.839 72.0853C123.279 71.3744 122.532 70.9479 121.598 70.9479C120.291 70.9479 119.17 71.7299 118.298 73.2228C117.426 74.7868 116.991 76.6351 116.991 78.91C116.991 80.2607 117.24 81.2559 117.738 81.9668C118.174 82.7488 118.859 83.0332 119.855 83.0332Z" fill="#EF4E58"/>
<path d="M133.179 78.3413C133.179 74.3602 134.237 71.0901 136.416 68.5308C138.596 66.0427 141.397 64.7631 144.884 64.7631C147.935 64.7631 150.301 65.6872 152.044 67.6067C153.788 69.455 154.659 72.0853 154.659 75.2844C154.659 79.1943 153.538 82.3934 151.359 84.9526C149.18 87.4408 146.316 88.7204 142.829 88.7204C139.841 88.7204 137.475 87.7962 135.731 85.8768C134.05 84.0996 133.179 81.5403 133.179 78.3413ZM144.759 70.3081C143.265 70.3081 142.02 71.0901 141.024 72.6541C140.028 74.218 139.529 76.1375 139.529 78.4834C139.529 80.0474 139.841 81.256 140.463 82.109C141.086 82.9621 141.958 83.3887 143.078 83.3887C144.573 83.3887 145.818 82.6067 146.876 80.9716C147.873 79.3365 148.371 77.346 148.371 74.9289C148.371 73.4361 148.059 72.2986 147.437 71.5166C146.752 70.6635 145.88 70.3081 144.759 70.3081Z" fill="#EF4E58"/>
<path d="M166.115 82.9621L165.181 87.9384C164.434 88.0806 163.873 88.1517 163.375 88.1517C162.939 88.2228 162.504 88.2228 162.068 88.2228C160.2 88.2228 158.83 87.7962 157.896 86.9431C156.962 86.0901 156.526 84.8815 156.526 83.1754C156.526 82.8199 156.526 82.3223 156.589 81.8247C156.651 81.327 156.713 80.7583 156.838 80.1896L158.768 69.8104H156.277L157.087 65.6161H159.639L160.885 59.0048H167.298L166.115 65.6161H169.415L168.668 69.8104H165.368L163.687 78.9811C163.624 79.5498 163.5 79.9763 163.5 80.474C163.437 80.9005 163.437 81.2559 163.437 81.4692C163.437 81.9668 163.562 82.3934 163.873 82.6067C164.185 82.891 164.558 83.0332 165.119 83.0332C165.305 83.0332 165.617 82.9621 166.053 82.891C165.99 82.9621 166.115 82.9621 166.115 82.9621Z" fill="#EF4E58"/>
<path d="M167.983 87.9384L172.155 65.6872H178.506L174.334 87.9384H167.983ZM172.591 63.199L173.649 57.5118H180.062L179.004 63.199H172.591Z" fill="#EF4E58"/>
</g>
<defs>
<clipPath id="clip0_1419_13544">
<rect width="180" height="90" fill="white"/>
</clipPath>
</defs>
</svg>
